<?xml version="1.0" encoding="UTF-8"?>
<svg xmlns="http://www.w3.org/2000/svg" xmlns:xlink="http://www.w3.org/1999/xlink" viewBox="0 0 27.57 38.6">
  <defs>
    <style>
      .cls-1 {
        fill: url(#radial-gradient-10);
      }

      .cls-2 {
        fill: #fff;
      }

      .cls-3 {
        filter: url(#luminosity-noclip-7);
      }

      .cls-4 {
        filter: url(#luminosity-noclip-5);
      }

      .cls-5 {
        fill: url(#radial-gradient-2);
      }

      .cls-5, .cls-6, .cls-7, .cls-8, .cls-9, .cls-10, .cls-11 {
        mix-blend-mode: multiply;
      }

      .cls-12 {
        mask: url(#mask-2);
      }

      .cls-13 {
        isolation: isolate;
      }

      .cls-14 {
        fill: url(#radial-gradient-8);
        mix-blend-mode: screen;
      }

      .cls-6 {
        fill: url(#radial-gradient-4);
      }

      .cls-15 {
        mask: url(#mask-3);
      }

      .cls-7 {
        fill: url(#radial-gradient-9);
      }

      .cls-8 {
        fill: url(#radial-gradient-5);
      }

      .cls-9 {
        fill: url(#radial-gradient);
      }

      .cls-16 {
        fill: url(#radial-gradient-6);
      }

      .cls-17 {
        mask: url(#mask-9);
      }

      .cls-18 {
        mask: url(#mask-5);
      }

      .cls-19 {
        filter: url(#luminosity-noclip-9);
      }

      .cls-20 {
        mask: url(#mask-8);
      }

      .cls-21 {
        mask: url(#mask-4);
      }

      .cls-22 {
        mask: url(#mask-6);
      }

      .cls-23 {
        filter: url(#luminosity-noclip);
      }

      .cls-24 {
        mask: url(#mask-1);
      }

      .cls-25 {
        mask: url(#mask);
      }

      .cls-26 {
        mask: url(#mask-7);
      }

      .cls-10 {
        fill: url(#radial-gradient-3);
      }

      .cls-11 {
        fill: url(#radial-gradient-7);
      }

      .cls-27 {
        filter: url(#luminosity-noclip-3);
      }
    </style>
    <filter id="luminosity-noclip" x="0" y="20.83" width="27.57" height="17.77" color-interpolation-filters="sRGB" filterUnits="userSpaceOnUse">
      <feFlood flood-color="#fff" result="bg"/>
      <feBlend in="SourceGraphic" in2="bg"/>
    </filter>
    <filter id="luminosity-noclip-2" x="0" y="-8451.56" width="27.57" height="32766" color-interpolation-filters="sRGB" filterUnits="userSpaceOnUse">
      <feFlood flood-color="#fff" result="bg"/>
      <feBlend in="SourceGraphic" in2="bg"/>
    </filter>
    <mask id="mask-1" x="0" y="-8451.56" width="27.57" height="32766" maskUnits="userSpaceOnUse"/>
    <radialGradient id="radial-gradient" cx="13.36" cy="-13.16" fx="13.36" fy="-13.16" r="55.81" gradientUnits="userSpaceOnUse">
      <stop offset=".62" stop-color="#000"/>
      <stop offset=".75" stop-color="#010101"/>
      <stop offset=".8" stop-color="#080808"/>
      <stop offset=".84" stop-color="#141414"/>
      <stop offset=".87" stop-color="#262626"/>
      <stop offset=".9" stop-color="#3c3c3c"/>
      <stop offset=".92" stop-color="#585858"/>
      <stop offset=".94" stop-color="#797979"/>
      <stop offset=".96" stop-color="#9f9f9f"/>
      <stop offset=".98" stop-color="#cacaca"/>
      <stop offset="1" stop-color="#f9f9f9"/>
      <stop offset="1" stop-color="#fff"/>
    </radialGradient>
    <mask id="mask" x="0" y="20.83" width="27.57" height="17.77" maskUnits="userSpaceOnUse">
      <g class="cls-23">
        <g class="cls-24">
          <path class="cls-9" d="m16.26,20.83c-5.42,0-10.84,0-16.25,0v16.32c0,1.41,1.07,1.44,1.07,1.44h25.43s1.07-.03,1.07-1.44v-16.33c-3.77,0-7.54,0-11.31,0Z"/>
        </g>
      </g>
    </mask>
    <radialGradient id="radial-gradient-2" cx="13.36" cy="-13.16" fx="13.36" fy="-13.16" r="55.81" gradientUnits="userSpaceOnUse">
      <stop offset=".62" stop-color="#fff"/>
      <stop offset=".79" stop-color="#fdfdfd"/>
      <stop offset=".85" stop-color="#f6f6f6"/>
      <stop offset=".9" stop-color="#eaeaea"/>
      <stop offset=".94" stop-color="#d8d8d8"/>
      <stop offset=".97" stop-color="#c2c2c2"/>
      <stop offset="1" stop-color="#ababab"/>
    </radialGradient>
    <filter id="luminosity-noclip-3" x="0" y="0" width="27.57" height="19.27" color-interpolation-filters="sRGB" filterUnits="userSpaceOnUse">
      <feFlood flood-color="#fff" result="bg"/>
      <feBlend in="SourceGraphic" in2="bg"/>
    </filter>
    <filter id="luminosity-noclip-4" x="0" y="-8451.56" width="27.57" height="32766" color-interpolation-filters="sRGB" filterUnits="userSpaceOnUse">
      <feFlood flood-color="#fff" result="bg"/>
      <feBlend in="SourceGraphic" in2="bg"/>
    </filter>
    <mask id="mask-3" x="0" y="-8451.56" width="27.57" height="32766" maskUnits="userSpaceOnUse"/>
    <radialGradient id="radial-gradient-3" cx="13.91" cy="35.62" fx="13.91" fy="35.62" r="39.99" gradientUnits="userSpaceOnUse">
      <stop offset=".62" stop-color="#000"/>
      <stop offset=".71" stop-color="#020202"/>
      <stop offset=".76" stop-color="#0a0a0a"/>
      <stop offset=".8" stop-color="#181818"/>
      <stop offset=".84" stop-color="#2c2c2c"/>
      <stop offset=".88" stop-color="#454545"/>
      <stop offset=".91" stop-color="#646464"/>
      <stop offset=".94" stop-color="#8a8a8a"/>
      <stop offset=".96" stop-color="#b5b5b5"/>
      <stop offset=".99" stop-color="#e5e5e5"/>
      <stop offset="1" stop-color="#fff"/>
    </radialGradient>
    <mask id="mask-2" x="0" y="0" width="27.57" height="19.27" maskUnits="userSpaceOnUse">
      <g class="cls-27">
        <g class="cls-15">
          <path class="cls-10" d="m0,19.26c2.32,0,4.64,0,6.96,0,6.69,0,13.37,0,20.06,0h.55V1.44C27.57.03,26.5,0,26.5,0H1.07S0,.03,0,1.44v9.63s0,8.19,0,8.19Z"/>
        </g>
      </g>
    </mask>
    <radialGradient id="radial-gradient-4" cx="13.91" cy="35.62" fx="13.91" fy="35.62" r="39.99" gradientUnits="userSpaceOnUse">
      <stop offset=".62" stop-color="#fff"/>
      <stop offset=".75" stop-color="#fcfcfc"/>
      <stop offset=".82" stop-color="#f4f4f4"/>
      <stop offset=".88" stop-color="#e6e6e6"/>
      <stop offset=".93" stop-color="#d3d3d3"/>
      <stop offset=".98" stop-color="#b9b9b9"/>
      <stop offset="1" stop-color="#ababab"/>
    </radialGradient>
    <filter id="luminosity-noclip-5" x=".51" y="0" width="27.06" height="38.6" color-interpolation-filters="sRGB" filterUnits="userSpaceOnUse">
      <feFlood flood-color="#fff" result="bg"/>
      <feBlend in="SourceGraphic" in2="bg"/>
    </filter>
    <filter id="luminosity-noclip-6" x=".51" y="-8451.56" width="27.06" height="32766" color-interpolation-filters="sRGB" filterUnits="userSpaceOnUse">
      <feFlood flood-color="#fff" result="bg"/>
      <feBlend in="SourceGraphic" in2="bg"/>
    </filter>
    <mask id="mask-5" x=".51" y="-8451.56" width="27.06" height="32766" maskUnits="userSpaceOnUse"/>
    <radialGradient id="radial-gradient-5" cx="-1.18" cy="-.02" fx="-1.18" fy="-.02" r="44.4" gradientUnits="userSpaceOnUse">
      <stop offset=".1" stop-color="#000"/>
      <stop offset="1" stop-color="#fff"/>
    </radialGradient>
    <mask id="mask-4" x=".51" y="0" width="27.06" height="38.6" maskUnits="userSpaceOnUse">
      <g class="cls-4">
        <g class="cls-18">
          <path class="cls-8" d="m27.51,1.44v35.66c0,1.41-1.07,1.44-1.07,1.44H.99s-.23,0-.48-.15c.27.2.56.21.56.21h25.43s1.07-.03,1.07-1.44V1.44c0-1.41-1.07-1.44-1.07-1.44h-.06s1.07.03,1.07,1.44Z"/>
        </g>
      </g>
    </mask>
    <radialGradient id="radial-gradient-6" cx="-1.18" cy="-.02" fx="-1.18" fy="-.02" r="44.4" gradientUnits="userSpaceOnUse">
      <stop offset=".1" stop-color="#fff"/>
      <stop offset="1" stop-color="#ababab"/>
    </radialGradient>
    <filter id="luminosity-noclip-7" x="0" y="0" width="27.06" height="38.6" color-interpolation-filters="sRGB" filterUnits="userSpaceOnUse">
      <feFlood flood-color="#fff" result="bg"/>
      <feBlend in="SourceGraphic" in2="bg"/>
    </filter>
    <filter id="luminosity-noclip-8" x="0" y="-8451.56" width="27.06" height="32766" color-interpolation-filters="sRGB" filterUnits="userSpaceOnUse">
      <feFlood flood-color="#fff" result="bg"/>
      <feBlend in="SourceGraphic" in2="bg"/>
    </filter>
    <mask id="mask-7" x="0" y="-8451.56" width="27.06" height="32766" maskUnits="userSpaceOnUse"/>
    <radialGradient id="radial-gradient-7" cx="7.53" cy="11.23" fx="7.53" fy="11.23" r="37.82" gradientUnits="userSpaceOnUse">
      <stop offset="0" stop-color="#000"/>
      <stop offset="0" stop-color="#090909"/>
      <stop offset=".05" stop-color="#373737"/>
      <stop offset=".09" stop-color="#626262"/>
      <stop offset=".14" stop-color="#878787"/>
      <stop offset=".2" stop-color="#a8a8a8"/>
      <stop offset=".25" stop-color="#c3c3c3"/>
      <stop offset=".32" stop-color="#d9d9d9"/>
      <stop offset=".4" stop-color="#eaeaea"/>
      <stop offset=".49" stop-color="#f6f6f6"/>
      <stop offset=".63" stop-color="#fdfdfd"/>
      <stop offset="1" stop-color="#fff"/>
    </radialGradient>
    <mask id="mask-6" x="0" y="0" width="27.06" height="38.6" maskUnits="userSpaceOnUse">
      <g class="cls-3">
        <g class="cls-26">
          <path class="cls-11" d="m.06,37.16V1.5C.06.08,1.12.06,1.12.06h25.46s.23,0,.48.15C26.79,0,26.5,0,26.5,0H1.07S0,.03,0,1.44v9.63s0,16.46,0,16.46v9.63c0,1.41,1.07,1.44,1.07,1.44h.06s-1.07-.03-1.07-1.44Z"/>
        </g>
      </g>
    </mask>
    <radialGradient id="radial-gradient-8" cx="7.53" cy="11.23" fx="7.53" fy="11.23" r="37.82" gradientUnits="userSpaceOnUse">
      <stop offset="0" stop-color="#fff"/>
      <stop offset=".14" stop-color="#fff"/>
      <stop offset="1" stop-color="#fff"/>
    </radialGradient>
    <filter id="luminosity-noclip-9" x="0" y="2.79" width=".06" height="33.28" color-interpolation-filters="sRGB" filterUnits="userSpaceOnUse">
      <feFlood flood-color="#fff" result="bg"/>
      <feBlend in="SourceGraphic" in2="bg"/>
    </filter>
    <filter id="luminosity-noclip-10" x="0" y="-8451.56" width=".06" height="32766" color-interpolation-filters="sRGB" filterUnits="userSpaceOnUse">
      <feFlood flood-color="#fff" result="bg"/>
      <feBlend in="SourceGraphic" in2="bg"/>
    </filter>
    <mask id="mask-9" x="0" y="-8451.56" width=".06" height="32766" maskUnits="userSpaceOnUse"/>
    <radialGradient id="radial-gradient-9" cx="2131.55" cy="-.02" fx="2131.55" fy="-.02" r="44.42" gradientTransform="translate(2160.33) rotate(-180) scale(1 -1)" xlink:href="#radial-gradient-5"/>
    <mask id="mask-8" x="0" y="2.79" width=".06" height="33.28" maskUnits="userSpaceOnUse">
      <g class="cls-19">
        <g class="cls-17">
          <path class="cls-7" d="m0,2.79v33.28c.02-.07.04-.13.06-.2v-8.38s0-24.09,0-24.09c-.02-.2-.04-.4-.06-.6Z"/>
        </g>
      </g>
    </mask>
    <radialGradient id="radial-gradient-10" cx="2131.55" cy="-.02" fx="2131.55" fy="-.02" r="44.42" gradientTransform="translate(2160.33) rotate(-180) scale(1 -1)" xlink:href="#radial-gradient-6"/>
  </defs>
  <g class="cls-13">
    <g id="Layer_2" data-name="Layer 2">
      <g id="Layer_1-2" data-name="Layer 1">
        <g>
          <g>
            <g>
              <path class="cls-2" d="m26.5,0H1.07S0,.03,0,1.44v9.63s0,16.46,0,16.46v9.63c0,1.41,1.07,1.44,1.07,1.44h25.43s1.07-.03,1.07-1.44V1.44C27.57.03,26.5,0,26.5,0Z"/>
              <g class="cls-25">
                <path class="cls-5" d="m16.26,20.83c-5.42,0-10.84,0-16.25,0v16.32c0,1.41,1.07,1.44,1.07,1.44h25.43s1.07-.03,1.07-1.44v-16.33c-3.77,0-7.54,0-11.31,0Z"/>
              </g>
              <g class="cls-12">
                <path class="cls-6" d="m0,19.26c2.32,0,4.64,0,6.96,0,6.69,0,13.37,0,20.06,0h.55V1.44C27.57.03,26.5,0,26.5,0H1.07S0,.03,0,1.44v9.63s0,8.19,0,8.19Z"/>
              </g>
            </g>
            <g class="cls-21">
              <path class="cls-16" d="m27.51,1.44v35.66c0,1.41-1.07,1.44-1.07,1.44H.99s-.23,0-.48-.15c.27.2.56.21.56.21h25.43s1.07-.03,1.07-1.44V1.44c0-1.41-1.07-1.44-1.07-1.44h-.06s1.07.03,1.07,1.44Z"/>
            </g>
            <g class="cls-22">
              <path class="cls-14" d="m.06,37.16V1.5C.06.08,1.12.06,1.12.06h25.46s.23,0,.48.15C26.79,0,26.5,0,26.5,0H1.07S0,.03,0,1.44v9.63s0,16.46,0,16.46v9.63c0,1.41,1.07,1.44,1.07,1.44h.06s-1.07-.03-1.07-1.44Z"/>
            </g>
            <g class="cls-20">
              <path class="cls-1" d="m0,2.79v33.28c.02-.07.04-.13.06-.2v-8.38s0-24.09,0-24.09c-.02-.2-.04-.4-.06-.6Z"/>
            </g>
          </g>
          <g>
            <g>
              <g>
                <path d="m2.75,7.67c-.06.72-.46,1.22-.46,1.22h.93s-.4-.5-.46-1.22Z"/>
                <path d="m3.43,6.86c-.09,0-.18.02-.26.05,0,0,0,0,0,0,.16-.12.27-.32.27-.54,0-.37-.3-.67-.67-.67s-.67.3-.67.67c0,.23.12.44.3.56-.09-.05-.19-.07-.3-.07-.37,0-.67.3-.67.67s.3.67.67.67.66-.29.67-.64c0,0,0,0,0,0,.02.36.31.64.67.64s.67-.3.67-.67-.3-.67-.67-.67Z"/>
              </g>
              <g>
                <path d="m2.05,4.36c0,.09,0,.17.02.21.01.05.03.09.06.12.03.03.07.05.12.07s.11.03.19.04c.08,0,.18.02.3.02v.18H.93v-.18c.18,0,.31-.02.39-.03.08-.01.14-.03.18-.06.04-.03.07-.07.09-.12.02-.05.03-.13.03-.25v-1.98c0-.06-.01-.11-.03-.14-.02-.03-.06-.05-.1-.05-.05,0-.13.03-.22.08-.1.05-.21.13-.36.22l-.11-.19,1.14-.68h.13c0,.16-.01.37-.01.65v2.08Z"/>
                <path d="m3.62,5.03c-.35,0-.61-.14-.78-.41-.17-.28-.26-.7-.26-1.26,0-.3.03-.56.08-.77.05-.22.13-.4.22-.54.1-.14.21-.25.34-.32.13-.07.28-.1.44-.1.36,0,.62.14.79.41.17.27.26.69.26,1.25s-.09,1.01-.28,1.31c-.19.29-.46.44-.82.44Zm-.57-1.75c0,.53.05.92.15,1.17.1.25.25.37.46.37s.34-.12.44-.35c.09-.23.14-.59.14-1.08,0-.37-.02-.68-.07-.91-.05-.23-.12-.4-.2-.5-.09-.1-.19-.15-.32-.15-.11,0-.21.03-.28.1-.08.07-.14.16-.18.29-.05.13-.08.28-.1.46-.02.18-.03.38-.03.61Z"/>
              </g>
            </g>
            <g>
              <g>
                <path d="m24.89,30.82c.06-.72.46-1.22.46-1.22h-.93s.4.5.46,1.22Z"/>
                <path d="m24.22,31.64c.09,0,.18-.02.26-.05,0,0,0,0,0,0-.16.12-.27.32-.27.54,0,.37.3.67.67.67s.67-.3.67-.67c0-.23-.12-.44-.3-.56.09.05.19.07.3.07.37,0,.67-.3.67-.67s-.3-.67-.67-.67-.66.29-.67.64c0,0,0,0,0,0-.02-.36-.31-.64-.67-.64s-.67.3-.67.67.3.67.67.67Z"/>
              </g>
              <g>
                <path d="m25.6,34.14c0-.09,0-.17-.02-.21-.01-.05-.03-.09-.06-.12-.03-.03-.07-.05-.12-.07-.05-.02-.11-.03-.19-.04-.08,0-.18-.02-.3-.02v-.18h1.8v.18c-.18,0-.31.02-.39.03s-.14.03-.18.06c-.04.03-.07.07-.09.12-.02.05-.03.13-.03.25v1.98c0,.06.01.11.03.14.02.03.06.05.1.05.05,0,.13-.03.22-.08.1-.05.21-.13.36-.22l.11.19-1.14.68h-.13c0-.16.01-.37.01-.65v-2.08Z"/>
                <path d="m24.02,33.46c.35,0,.61.14.78.41.17.28.26.7.26,1.26,0,.3-.03.56-.08.77-.05.22-.13.4-.22.54-.1.14-.21.25-.34.32-.13.07-.28.1-.44.1-.36,0-.62-.14-.79-.41-.17-.27-.26-.69-.26-1.25s.09-1.01.28-1.31c.19-.3.46-.44.82-.44Zm.57,1.74c0-.53-.05-.92-.15-1.17-.1-.25-.25-.37-.46-.37s-.34.12-.44.35c-.1.23-.14.59-.14,1.08,0,.37.02.68.07.91.05.23.12.4.2.5.09.1.19.15.32.15.11,0,.21-.03.28-.1.08-.07.14-.16.18-.29s.08-.28.1-.46c.02-.18.03-.38.03-.61Z"/>
              </g>
            </g>
            <g>
              <g>
                <g>
                  <path d="m13.79,26.26c-.12-1.42-.92-2.42-.92-2.42h1.84s-.8,1-.92,2.42Z"/>
                  <path d="m16.46,26.53c0-.74-.6-1.34-1.34-1.34s-1.3.57-1.33,1.28c0,0,0,0,0,0-.03-.71-.62-1.28-1.33-1.28s-1.34.6-1.34,1.34.6,1.34,1.34,1.34c.21,0,.42-.05.6-.14-.36.24-.6.65-.6,1.11,0,.74.6,1.34,1.34,1.34s1.34-.6,1.34-1.34c0-.43-.21-.82-.53-1.06,0,0,0,0,.01-.01.16.07.33.1.52.1.74,0,1.34-.6,1.34-1.34Z"/>
                </g>
                <g>
                  <path d="m13.79,12.18c-.12,1.42-.92,2.42-.92,2.42h1.84s-.8-1-.92-2.42Z"/>
                  <path d="m15.12,10.56c-.18,0-.36.04-.52.1,0,0,0,0-.01-.01.32-.24.53-.63.53-1.06,0-.74-.6-1.34-1.34-1.34s-1.34.6-1.34,1.34c0,.46.24.87.6,1.11-.18-.09-.38-.14-.6-.14-.74,0-1.34.6-1.34,1.34s.6,1.34,1.34,1.34,1.3-.57,1.33-1.28c0,0,0,0,0,0,.03.71.62,1.28,1.33,1.28s1.34-.6,1.34-1.34-.6-1.34-1.34-1.34Z"/>
                </g>
              </g>
              <g>
                <g>
                  <path d="m18.88,8.47c-.12,1.42-.92,2.42-.92,2.42h1.84s-.8-1-.92-2.42Z"/>
                  <path d="m20.21,6.86c-.18,0-.36.04-.52.1,0,0,0,0-.01-.01.32-.24.53-.63.53-1.06,0-.74-.6-1.34-1.34-1.34s-1.34.6-1.34,1.34c0,.46.24.87.6,1.11-.18-.09-.38-.14-.6-.14-.74,0-1.34.6-1.34,1.34s.6,1.34,1.34,1.34,1.3-.57,1.33-1.28c0,0,0,0,0,0,.03.71.62,1.28,1.33,1.28s1.34-.6,1.34-1.34-.6-1.34-1.34-1.34Z"/>
                </g>
                <g>
                  <path d="m18.88,30.12c.12-1.42.92-2.42.92-2.42h-1.84s.8,1,.92,2.42Z"/>
                  <path d="m17.54,31.74c.18,0,.36-.04.52-.1,0,0,0,0,.01.01-.32.24-.53.63-.53,1.06,0,.74.6,1.34,1.34,1.34s1.34-.6,1.34-1.34c0-.46-.24-.87-.6-1.11.18.09.38.14.6.14.74,0,1.34-.6,1.34-1.34s-.6-1.34-1.34-1.34-1.3.57-1.33,1.28c0,0,0,0,0,0-.03-.71-.62-1.28-1.33-1.28s-1.34.6-1.34,1.34.6,1.34,1.34,1.34Z"/>
                </g>
                <g>
                  <path d="m18.88,16.19c-.12,1.42-.92,2.42-.92,2.42h1.84s-.8-1-.92-2.42Z"/>
                  <path d="m20.21,14.58c-.18,0-.36.04-.52.1,0,0,0,0-.01-.01.32-.24.53-.63.53-1.06,0-.74-.6-1.34-1.34-1.34s-1.34.6-1.34,1.34c0,.46.24.87.6,1.11-.18-.09-.38-.14-.6-.14-.74,0-1.34.6-1.34,1.34s.6,1.34,1.34,1.34,1.3-.57,1.33-1.28c0,0,0,0,0,0,.03.71.62,1.28,1.33,1.28s1.34-.6,1.34-1.34-.6-1.34-1.34-1.34Z"/>
                </g>
                <g>
                  <path d="m18.88,22.41c-.12-1.42-.92-2.42-.92-2.42h1.84s-.8,1-.92,2.42Z"/>
                  <path d="m21.55,22.68c0-.74-.6-1.34-1.34-1.34s-1.3.57-1.33,1.28c0,0,0,0,0,0-.03-.71-.62-1.28-1.33-1.28s-1.34.6-1.34,1.34.6,1.34,1.34,1.34c.21,0,.42-.05.6-.14-.36.24-.6.65-.6,1.11,0,.74.6,1.34,1.34,1.34s1.34-.6,1.34-1.34c0-.43-.21-.82-.53-1.06,0,0,0,0,.01-.01.16.07.33.1.52.1.74,0,1.34-.6,1.34-1.34Z"/>
                </g>
              </g>
              <g>
                <g>
                  <path d="m8.69,8.47c-.12,1.42-.92,2.42-.92,2.42h1.84s-.8-1-.92-2.42Z"/>
                  <path d="m10.03,6.86c-.18,0-.36.04-.52.1,0,0,0,0-.01-.01.32-.24.53-.63.53-1.06,0-.74-.6-1.34-1.34-1.34s-1.34.6-1.34,1.34c0,.46.24.87.6,1.11-.18-.09-.38-.14-.6-.14-.74,0-1.34.6-1.34,1.34s.6,1.34,1.34,1.34,1.3-.57,1.33-1.28c0,0,0,0,0,0,.03.71.62,1.28,1.33,1.28s1.34-.6,1.34-1.34-.6-1.34-1.34-1.34Z"/>
                </g>
                <g>
                  <path d="m8.69,16.19c-.12,1.42-.92,2.42-.92,2.42h1.84s-.8-1-.92-2.42Z"/>
                  <path d="m10.03,14.58c-.18,0-.36.04-.52.1,0,0,0,0-.01-.01.32-.24.53-.63.53-1.06,0-.74-.6-1.34-1.34-1.34s-1.34.6-1.34,1.34c0,.46.24.87.6,1.11-.18-.09-.38-.14-.6-.14-.74,0-1.34.6-1.34,1.34s.6,1.34,1.34,1.34,1.3-.57,1.33-1.28c0,0,0,0,0,0,.03.71.62,1.28,1.33,1.28s1.34-.6,1.34-1.34-.6-1.34-1.34-1.34Z"/>
                </g>
                <g>
                  <path d="m8.69,22.41c-.12-1.42-.92-2.42-.92-2.42h1.84s-.8,1-.92,2.42Z"/>
                  <path d="m11.36,22.68c0-.74-.6-1.34-1.34-1.34s-1.3.57-1.33,1.28c0,0,0,0,0,0-.03-.71-.62-1.28-1.33-1.28s-1.34.6-1.34,1.34.6,1.34,1.34,1.34c.21,0,.42-.05.6-.14-.36.24-.6.65-.6,1.11,0,.74.6,1.34,1.34,1.34s1.34-.6,1.34-1.34c0-.43-.21-.82-.53-1.06,0,0,0,0,.01-.01.16.07.33.1.52.1.74,0,1.34-.6,1.34-1.34Z"/>
                </g>
                <g>
                  <path d="m8.69,30.12c.12-1.42.92-2.42.92-2.42h-1.84s.8,1,.92,2.42Z"/>
                  <path d="m7.36,31.74c.18,0,.36-.04.52-.1,0,0,0,0,.01.01-.32.24-.53.63-.53,1.06,0,.74.6,1.34,1.34,1.34s1.34-.6,1.34-1.34c0-.46-.24-.87-.6-1.11.18.09.38.14.6.14.74,0,1.34-.6,1.34-1.34s-.6-1.34-1.34-1.34-1.3.57-1.33,1.28c0,0,0,0,0,0-.03-.71-.62-1.28-1.33-1.28s-1.34.6-1.34,1.34.6,1.34,1.34,1.34Z"/>
                </g>
              </g>
            </g>
          </g>
        </g>
      </g>
    </g>
  </g>
</svg>