<?xml version="1.0" encoding="UTF-8"?>
<svg id="Layer_2" data-name="Layer 2" xmlns="http://www.w3.org/2000/svg" viewBox="0 0 2694.02 1452.72">
  <defs>
    <style>
      .cls-1 {
        fill: #8c9df4;
      }

      .cls-2 {
        fill: #fff;
      }

      .cls-3 {
        fill: #82b378;
      }

      .cls-4 {
        fill: #3d4ca5;
      }

      .cls-5 {
        fill: #798ee8;
      }

      .cls-6 {
        opacity: .5;
      }

      .cls-7 {
        fill: #f77d48;
      }

      .cls-8 {
        fill: #f99746;
      }

      .cls-9 {
        fill: #707fe5;
      }

      .cls-10 {
        fill: #5e6ecc;
      }

      .cls-11 {
        fill: #a8d29f;
      }

      .cls-12 {
        fill: #b3c2ff;
      }

      .cls-13 {
        fill: #ed7b2e;
      }

      .cls-14 {
        fill: #bbd0ff;
      }

      .cls-15 {
        fill: #152949;
      }

      .cls-16 {
        fill: #6c7aff;
      }

      .cls-17 {
        fill: #fca56b;
      }

      .cls-18 {
        fill: #d2e0ff;
      }

      .cls-19 {
        fill: #6b80dd;
      }

      .cls-20 {
        fill: #214c7f;
      }

      .cls-21 {
        fill: #ff8939;
      }

      .cls-22 {
        fill: #739af0;
      }

      .cls-23 {
        fill: #e58638;
      }

      .cls-24 {
        fill: #86a2e2;
      }

      .cls-25 {
        fill: #2c3a64;
      }

      .cls-26 {
        fill: #ed985f;
      }

      .cls-27 {
        fill: #ed917e;
      }

      .cls-28 {
        fill: #ed975d;
      }

      .cls-29 {
        fill: #aec3ff;
      }

      .cls-30 {
        fill: #a4b5ff;
      }

      .cls-31 {
        fill: #ed7d2b;
      }

      .cls-32 {
        fill: #ffb27d;
      }

      .cls-33 {
        fill: #505aba;
      }

      .cls-34 {
        fill: #1f3b72;
      }

      .cls-35 {
        fill: #849def;
      }

      .cls-36 {
        fill: #233862;
      }

      .cls-37 {
        fill: #163560;
      }

      .cls-38 {
        fill: #2b478b;
      }

      .cls-39 {
        fill: #ebf3fa;
      }

      .cls-40 {
        fill: #c0d4ff;
      }
    </style>
  </defs>
  <g id="_лой_1" data-name="‘лой_1">
    <g class="cls-6">
      <path class="cls-29" d="m869.69,392.05s-17.48-146.4-92.5-233.77c-9.97-11.61-29.05-4.22-28.73,11.08,0,.25.01.51.02.77.97,26.12,84.97,136.28,121.21,221.92Z"/>
    </g>
    <g class="cls-6">
      <path class="cls-29" d="m878.81,433.97s-74.76-182.99-202.44-263.92c-7.79-4.94-18.33-3.15-23.55,4.45-3.4,4.95-4.93,12.68-1.11,24.75,10.17,32.19,152.58,140.53,227.11,234.72Z"/>
    </g>
    <path class="cls-3" d="m1809.98,387.44s-66.94-41.21-32.8-91.97c0,0,26.91-30.92,54.66-38.01,0,0-17.83,77.06-3.29,79.49,14.54,2.43,13.68-87.3,13.68-87.3,0,0,73.62-31.73,101.83-27.82,0,0-47.91,73.98-33.21,72.76,14.69-1.22,68.12-75.89,68.12-75.89,0,0,74.58-10.64,84.64,33.71,10.06,44.35-10.03,65.48-21.11,67.77-11.08,2.29-81.39-1.54-79.94,7.67,1.45,9.21,48.36,25.8,75.19,18.67,0,0-32.22,70.97-70.45,65.73-38.22-5.24-49.12-29.49-72.8-32.3-23.68-2.81-41.3,2.87-29.69,9.75,11.61,6.89,51.99,4.25,70.51,21.36,18.51,17.11,33.63,27.8-2.31,33.63-35.94,5.83-99.7-1.38-111.36-29.32l-11.66-27.94Z"/>
    <g>
      <path class="cls-3" d="m2029.23,264.72s-194.44,54.19-219.25,122.72c0,0-.37,31.1-21.03,65.94l-.57,13.71s22.03-45.77,33.26-51.71c0,0-40.45-62.08,207.59-150.66Z"/>
      <path class="cls-3" d="m1788.95,453.38s-31.45,43.71-16.84,99.1l7.7-1.73s-4.9-60.55,11.84-90.21c16.74-29.66-2.69-7.16-2.69-7.16Z"/>
    </g>
    <path class="cls-11" d="m1539.13,385.79s-112.41,9.94-116.63-77.77c0,0,4.47-58.67,30.34-90.63,0,0,45.54,104.02,64.37,94.35,18.83-9.67-59.1-112.25-59.1-112.25,0,0,57.56-99.66,93.39-119.34,0,0,8.27,126.26,24.14,112.26,15.87-14.01,13.37-145.79,13.37-145.79,0,0,76.74-76.2,126.36-33.76,49.61,42.44,44.6,84,33.8,96.13-10.79,12.13-95.04,68.02-85.47,77.38,9.57,9.36,77.8-11.76,102.59-42.97,0,0,23.75,109.35-24.76,136.09-48.51,26.74-81.84,8.16-111.52,25.23-29.67,17.07-45.1,38.72-25.82,36.69,19.28-2.03,63.51-39.69,99.49-35.86,35.98,3.82,62.56,3.17,26.18,40.71-36.38,37.53-115.99,83.9-153.36,61.73l-37.38-22.18Z"/>
    <g>
      <path class="cls-11" d="m1686.35,56.5s-177.42,229.12-147.22,329.29c0,0,26.24,36.13,32.32,93.96l11.1,16.27s-13.88-71.58-6.04-88.05c0,0-99.8-36.8,109.84-351.47Z"/>
      <path class="cls-11" d="m1571.45,479.76s1.27,77.29,65.58,128.55l7.38-8.59s-57.56-65.52-63.72-114.02-9.24-5.94-9.24-5.94Z"/>
    </g>
    <g>
      <path class="cls-14" d="m482.83,1249.94s-31.49-36.73-1.94-60.06c0,0,21.58-13.06,39.18-12,0,0-24.93,41.81-16.87,45.97,8.07,4.16,24.42-48.59,24.42-48.59,0,0,49.11-4.76,64.91,2.83,0,0-41.98,34.36-33.14,36.4,8.84,2.04,54.19-31.67,54.19-31.67,0,0,45.71,7.78,43.27,35.66-2.44,27.88-18.19,36.49-25.11,35.75-6.92-.74-47.41-16.2-48.29-10.53-.88,5.67,23.49,24.21,40.56,25.07,0,0-32.22,35.54-53.64,25.28-21.42-10.26-23.24-26.51-36.59-32.61-13.35-6.1-24.75-6.08-19.23.14,5.51,6.22,29.67,12.26,37.31,25.77,7.63,13.5,14.48,22.61-7.67,19.28-22.16-3.33-58.17-19.55-59.76-38.11l-1.58-18.57Z"/>
      <g>
        <path class="cls-14" d="m634.39,1219.22s-124.14-4.78-151.56,30.72c0,0-6.06,18.16-24.72,34.69l-2.91,7.93s21.51-22.68,29.21-24.05c0,0-12.04-43.98,149.98-49.29Z"/>
        <path class="cls-14" d="m458.11,1284.64s-26.65,19.71-28.5,54.92l4.84.43s8.51-36.41,23.89-50.65c15.38-14.24-.23-4.7-.23-4.7Z"/>
      </g>
    </g>
    <g>
      <path class="cls-29" d="m372.75,1203.75s50.08-28.05,26.71-66.11c0,0-18.7-23.37-38.73-29.38,0,0,10.68,56.76,0,58.1-10.69,1.34-7.35-64.11-7.35-64.11,0,0-52.76-25.38-73.46-23.37,0,0,32.72,55.43,22.04,54.09-10.68-1.34-47.41-57.43-47.41-57.43,0,0-54.09-10.02-62.77,22.04-8.68,32.05,5.34,48.08,13.36,50.09,8.01,2,59.43,1.33,58.1,8.01-1.34,6.68-36.06,17.36-55.43,11.35,0,0,21.37,52.76,49.42,50.08,28.05-2.67,36.73-20.03,54.09-21.37,17.36-1.34,30.05,3.34,21.37,8.01-8.68,4.67-38.06,1.53-52.09,13.45-14.02,11.92-25.38,19.27.67,24.61,26.04,5.34,72.79,2,82.14-18.03l9.35-20.03Z"/>
      <g>
        <path class="cls-29" d="m216.48,1107.59s140.24,45.41,156.27,96.16c0,0-.67,22.7,13.36,48.75v10.02s-14.69-34.06-22.71-38.73c0,0,31.39-44.07-146.92-116.2Z"/>
        <path class="cls-29" d="m386.11,1252.5s21.63,32.84,9.3,72.82l-5.56-1.49s5.4-44.03-5.91-66.18c-11.31-22.15,2.18-5.15,2.18-5.15Z"/>
      </g>
    </g>
    <g>
      <path class="cls-18" d="m452.43,1165.07s-66.02-36.97-35.21-87.15c0,0,24.65-30.81,51.06-38.73,0,0-14.08,74.82,0,76.58,14.08,1.76,9.68-84.51,9.68-84.51,0,0,69.54-33.45,96.83-30.81,0,0-43.13,73.06-29.05,71.3,14.08-1.76,62.5-75.7,62.5-75.7,0,0,71.3-13.21,82.75,29.05,11.44,42.25-7.04,63.38-17.61,66.02-10.56,2.64-78.35,1.76-76.59,10.56,1.76,8.8,47.54,22.89,73.06,14.96,0,0-28.17,69.54-65.14,66.02-36.97-3.52-48.42-26.41-71.3-28.17-22.89-1.76-39.61,4.4-28.17,10.56,11.44,6.16,50.18,2.02,68.66,17.73,18.49,15.72,33.45,25.4-.88,32.44-34.33,7.04-95.95,2.64-108.28-23.77l-12.32-26.41Z"/>
      <g>
        <path class="cls-18" d="m658.42,1038.31s-184.86,59.86-205.99,126.76c0,0,.88,29.93-17.61,64.26v13.2s19.37-44.89,29.93-51.06c0,0-41.37-58.1,193.66-153.17Z"/>
        <path class="cls-18" d="m434.83,1229.33s-28.51,43.29-12.26,95.99l7.33-1.97s-7.12-58.04,7.8-87.24c14.91-29.19-2.87-6.78-2.87-6.78Z"/>
      </g>
    </g>
    <path class="cls-40" d="m450.21,1439.6c71.43,0,129.33-57.9,129.33-129.33h-258.65c0,71.42,57.9,129.33,129.33,129.33Z"/>
    <path class="cls-40" d="m581.32,1446.18h-262.22c0-8.81,7.14-15.96,15.96-15.96h230.31c8.81,0,15.96,7.14,15.96,15.96h0Z"/>
    <rect class="cls-24" x="316.63" y="1310.27" width="265.85" height="3.97"/>
    <path class="cls-5" d="m1332.36,715.1l-57.87,688.11s-6.06,41.71,24.96,41.79c51.01.12,253.91,0,253.91,0,0,0-38.39-8.68-37.93-28.22.55-23.03,67.64-708.19,67.64-708.19l-250.72,6.51Z"/>
    <path class="cls-29" d="m1572.47,1432.48c-10.03.03-206.47.36-256.15-.28-21.65-.27-25.45-19.25-25.63-31.54-.09-5.89.66-10.24.66-10.24l1.5-17.88,3.84-45.58,3.39-40.27,4.35-51.75,3.67-43.68,41.12-488.95,250.72-6.51s-28.26,286.74-48.24,495.46c-2.23,23.25-4.35,45.55-6.32,66.37-.64,6.65-1.25,13.14-1.84,19.47-1.85,19.75-3.55,37.88-5.02,53.89-.78,8.44-1.49,16.28-2.14,23.46-2.55,28.15-4.05,46.12-4.07,49.54,0,1.99.16,3.85.49,5.57,4.12,21.93,35.91,22.92,39.67,22.92Z"/>
    <polygon class="cls-29" points="723.48 340.35 864.45 906.58 883.75 984.13 949.41 1247.86 2169.17 1247.86 1927.18 340.35 723.48 340.35"/>
    <polygon class="cls-5" points="723.48 340.35 703.95 346.86 923.43 1267.56 949.41 1247.87 723.48 340.35"/>
    <polygon class="cls-35" points="923.43 1267.56 2135.69 1267.56 2169.17 1247.87 949.41 1247.87 923.43 1267.56"/>
    <rect class="cls-29" x="1349.14" y="1432.48" width="262.47" height="12.47" transform="translate(2960.75 2877.44) rotate(180)"/>
    <polygon class="cls-1" points="1544.89 1267.56 1543.54 1277.09 1296.69 1326.96 1300.08 1286.69 1301.7 1267.56 1544.89 1267.56"/>
    <path class="cls-1" d="m1572.47,1432.48c-10.03.03-206.47.36-256.15-.28-21.65-.27-25.45-19.25-25.63-31.54l245.68-46.22c-2.55,28.15-4.05,46.12-4.07,49.54,0,1.99.16,3.85.49,5.57,4.12,21.93,35.91,22.92,39.67,22.92Z"/>
    <polygon class="cls-1" points="723.48 340.35 1927.18 340.35 2122.48 1069.71 905.05 1069.71 723.48 340.35"/>
    <polygon class="cls-33" points="2065.71 1038.1 938.68 1038.1 898.41 877.66 882.83 815.58 876.47 790.27 835.08 625.39 832.94 616.81 811.05 529.66 801.26 490.66 792.92 457.39 786.1 430.27 773.33 379.43 1884.12 379.43 1898.14 430.27 1905.61 457.39 1914.78 490.66 1925.53 529.66 1996.36 786.56 1996.36 786.57 2002.35 808.34 2005.14 818.44 2054.04 995.8 2065.71 1038.1"/>
    <polygon class="cls-10" points="1619.03 1009.04 1039.15 1009.04 1007.29 852.87 994.96 803.77 989.94 783.74 957.19 653.31 955.5 646.52 938.18 577.58 930.44 546.73 923.84 520.42 918.44 498.96 908.35 458.74 1475.75 458.74 1619.03 1009.04"/>
    <polygon class="cls-1" points="1362.37 1069.71 949.82 1249.99 905.05 1069.71 1362.37 1069.71"/>
    <path class="cls-25" d="m2301.87,672.53c.06-1.62,1.32-19.12,27.97-20.04,0,0-13.11,1.56-15.37,7.33,0,0,8.92-7.12,16.19-4.83,7.27,2.29,11.54,15.02,11.58,19.21.04,4.19-4,17.69-8.61,18.84-1.75.43-3.76.32-5.59,0,1.23,1.92,2.43,4.03,3.58,6.39,10.63,21.83-.33,43.17-9.34,40.81-5.78-1.51-7.41,8.34-7.41,8.34l-56.1-45.42s20.61-42.64,43.09-30.64Z"/>
    <path class="cls-32" d="m2148.98,945.5c4.69,4.15,17.13-10.1,18.85-11.99.09-.18.18-.27.18-.27l-3.79-10.55s-16.32-.63-19.03,2.07c-2.7,2.71-1.35,16.32,3.79,20.74Z"/>
    <path class="cls-38" d="m2282.34,1315.7l11.92,4.44s51.76-71.79,58.13-134.94c1.14-11.28-1.2-35.18-.31-40.29.41-2.38.91-5.25,1.49-8.54,1.68-9.64,4-22.83,6.64-37.85,6.09-34.57,13.98-78.75,20.11-111.24l-3.21-1.03-34.74-11.21-7.18-22.8-25.87-6.81s-5.78,11.3-10.94,64.71c-.95,7-1.82,14.73-2.47,23.11-2.01,25.57-2.16,57.28,2.46,93.54,1.19,9.28,6.11,45.76,5.54,57.06-2.61,51.63-21.56,131.87-21.56,131.87Z"/>
    <path class="cls-36" d="m2295.9,1033.23l56.17,111.68c.41-2.38.91-5.25,1.49-8.54,1.68-9.64,4-22.83,6.64-37.85,6.09-34.57,13.98-78.75,20.11-111.24l-3.21-1.03-34.74-11.21-7.18-22.8-25.87-6.81s-5.78,11.3-10.94,64.71c-.95,7-1.82,14.73-2.47,23.11Z"/>
    <path class="cls-38" d="m2320.62,959.75l1.3-11.15c21.79,5.79,80-16.17,80-16.17,0,0,21.11,18.55,18.34,63.02-1.35,21.71-3.82,113.94-6.4,141.24-.93,9.89,5.49,35.35,8.07,42.22,25.33,67.49-3.9,150.6-3.9,150.6l-7.58-3.06s-47.98-173.97-52.93-192.4c-9.35-34.84-16.88-80.17-21.9-115.16-.69.03-14.98-59.14-14.98-59.14Z"/>
    <path class="cls-32" d="m2304.08,830.36c37.46,2.05,29.23-53.78,26.94-53.5-4.58-2.39-12.81-14.02-17.57-33.47l-1.62.75-27.03,12.71s2.87,8.79,4.99,17.21c1.65,6.59,2.84,12.95,1.85,14.73-2.13.87-3.41,1.41-3.41,1.41,0,0,0,0,0,.03-.27.69,5.86,39.59,15.85,40.13Z"/>
    <path class="cls-26" d="m2284.81,756.86s2.87,8.79,4.99,17.21c15.8-4.41,20.59-21.01,22.04-29.92l-27.03,12.7Z"/>
    <path class="cls-32" d="m2281.48,766.16s37.8-8.75,31.99-32.2c-5.81-23.45-4.84-40.38-29.22-35.78-24.38,4.59-26.83,14.7-26.8,23,.04,8.3,14.05,46.66,24.03,44.99Z"/>
    <path class="cls-25" d="m2255.33,707.86c4.06-8.5,8.84-8.05,11.84-6.54,17.76-16.43,35.18-3.01,35.18-3.01,6.7,16.2,21.23,22.81,21.23,22.81,0,0-5.81,5.95-22.63,5.81-5.14-.04-10.31-2.4-15.01-5.65,9.07,9.14,19.71,14.7,19.71,14.7-21.07-4.03-35.19-28.42-36.64-31.01-1.78,2.64-5.2,8.25-5.49,12.98-.39,6.44,1.83,18.94-1.86,19.41,0,0-12.42-16.76-6.32-29.51Z"/>
    <path class="cls-36" d="m2373.92,1335.7h60.02s1.44-9.15-1.7-16.09c-3-6.66-7.71-9.69-6.58-17.74-3.81,3.93-10.03,8.32-18.71,7.16-1.06,1.72-6.86,10.95-10.41,13.5-3.92,2.82-21.41,1.81-22.62,13.17Z"/>
    <path class="cls-36" d="m2245.05,1335.7h60.02s2.24-9.57-1.7-16.09c-3.49-5.76-2.15-9.05.43-13.82-2.72,1.11-6.24,2.12-10.11,1.9-2.99-.17-6.15-1.53-8.93-3.14-2.58,2.94-13.64,15.48-17.1,17.96-3.92,2.82-21.41,1.81-22.62,13.17Z"/>
    <path class="cls-1" d="m2403.03,861.52c-3.23-10.47-6.56-20.51-9.94-29.78-7.68-21.07-12.57-32.07-16.71-40.59-7.88-16.21-43.12-15.19-43.12-15.19-6.79,24.46-25.44,39.7-25.44,39.7-9.94-5.84-17.35-26.37-17.35-26.37l-21.76,11.58h0c-.08.08-6.74,4.01-12.61,20.89-8.73,25.12-22.9,60.78-32.73,71.69-2.29,2.54-9.01,6.39-17.14,10.48h0c-.17.27-.31.41-.4.41.52,1.2,2.9,6.86,6.72,12.61,3.1,4.67,7.18,9.39,12.01,11.83,3.71-1.79,10.39-4.42,13.22-6.16,10.24-6.26,25.5-15.29,37.43-34.31l3.33,44.74,6.02,80.93c9.26,2.88,18.07,5.13,26.43,6.86.55-6.78,2.74-14.9,2.74-14.9-.09,4.26,4.88,12.4,7.83,16.83,76.86,12.31,112.89-21.21,112.89-21.21-2.99-29.68-15.94-89.7-31.44-140.02Z"/>
    <path class="cls-9" d="m2325.49,771.44s6.39.43,7.77,4.52c0,0-8.34,33.59-25.43,39.7l17.66-44.22Z"/>
    <path class="cls-9" d="m2307.82,815.66s-16.32-29.46-16.26-33.44c0,0-6.21,5.5-5.8,9.58,0,0,13.75,22.02,22.06,23.86Z"/>
    <path class="cls-9" d="m2351.59,803.71c-.46,1.59-33.78,81.21-63.66,110.57-13.08,12.85,28.6,9.14,29,6.75.4-2.39,34.66-117.32,34.66-117.32Z"/>
    <path class="cls-9" d="m2279.6,935.56l2.85,44.92c91.13-21.17,83.48-166.31,83.48-166.31l-45.76,94.49-40.16,26.25s-.15.22-.41.64Z"/>
    <path class="cls-29" d="m2205.72,904.2c.02.1.06.14.12.14-.03-.07-.06-.13-.07-.17-.07-.14-.09-.14-.05.02Z"/>
    <g>
      <path class="cls-8" d="m2250.8,842.35l18.15,80.88c2.89,12.88-6.86,23.32-21.79,23.32h-435.7c-14.92,0-29.36-10.44-32.25-23.32l-18.15-80.88c-.11-.5-.21-.98-.26-1.48-1.87-12.2,7.7-21.84,22.05-21.84h435.7c14.35,0,28.25,9.65,31.85,21.84.17.5.29.98.4,1.48Z"/>
      <g>
        <g>
          <polygon class="cls-39" points="1812.42 910.08 1808.15 910.08 1796.86 859.76 1801.13 859.76 1812.42 910.08"/>
          <polygon class="cls-39" points="1841.87 880.53 1811.25 880.53 1808.06 866.29 1838.68 866.29 1841.87 880.53"/>
          <polygon class="cls-39" points="1856.14 900.95 1815.83 900.95 1812.64 886.7 1852.95 886.7 1856.14 900.95"/>
        </g>
        <g>
          <polygon class="cls-39" points="1910.37 910.08 1906.09 910.08 1894.8 859.76 1899.08 859.76 1910.37 910.08"/>
          <polygon class="cls-39" points="1916.91 880.53 1886.29 880.53 1883.09 866.29 1913.71 866.29 1916.91 880.53"/>
          <polygon class="cls-39" points="1926.33 900.95 1886.02 900.95 1882.83 886.7 1923.14 886.7 1926.33 900.95"/>
        </g>
        <g>
          <polygon class="cls-39" points="2008.32 910.08 2004.04 910.08 1992.75 859.76 1997.03 859.76 2008.32 910.08"/>
          <polygon class="cls-39" points="1991.94 880.53 1961.32 880.53 1958.12 866.29 1988.74 866.29 1991.94 880.53"/>
          <polygon class="cls-39" points="1996.52 900.95 1956.21 900.95 1953.01 886.7 1993.32 886.7 1996.52 900.95"/>
        </g>
        <g>
          <polygon class="cls-39" points="2070.99 863.83 2020.67 863.83 2019.71 859.56 2070.03 859.56 2070.99 863.83"/>
          <polygon class="cls-39" points="2042.34 867.84 2049.21 898.46 2034.97 898.46 2028.1 867.84 2042.34 867.84"/>
          <polygon class="cls-39" points="2062.75 867.84 2071.8 908.15 2057.55 908.15 2048.51 867.84 2062.75 867.84"/>
        </g>
        <g>
          <polygon class="cls-39" points="2150.19 887.06 2099.87 887.06 2098.91 882.79 2149.23 882.79 2150.19 887.06"/>
          <polygon class="cls-39" points="2116.72 869.61 2123.6 900.23 2109.35 900.23 2102.48 869.61 2116.72 869.61"/>
          <polygon class="cls-39" points="2136.05 864.77 2145.1 905.08 2130.85 905.08 2121.81 864.77 2136.05 864.77"/>
        </g>
        <g>
          <polygon class="cls-39" points="2229.43 910.47 2179.11 910.47 2178.15 906.2 2228.47 906.2 2229.43 910.47"/>
          <polygon class="cls-39" points="2191.43 871.21 2198.3 901.83 2184.06 901.83 2177.19 871.21 2191.43 871.21"/>
          <polygon class="cls-39" points="2209.67 861.52 2218.71 901.83 2204.47 901.83 2195.42 861.52 2209.67 861.52"/>
        </g>
      </g>
    </g>
    <g>
      <path class="cls-32" d="m2207.03,939.31c4.97-.02,12.8-.36,17.33-2.1,0,0-14.47-.21-11.4-4.78.56-.83,7.75-.2,15.79-.2,3.29,0,11.43,4.51,11.01,4.72,5.82-.77,11.11-1.9,12.82-2.27.45-.09.63-.18.63-.18l5.14,14.97s-1.08.27-2.98.63c-4.78,1.17-14.61,3.7-23.9,7.31-12.99,5.14-22.54-1.25-26.87-5.77-2.75-2.87-4.91-6.67-4.76-9.43.16-3.02,4.15-2.88,7.18-2.9Z"/>
      <path class="cls-32" d="m2241.95,940.46l3.16,11.54s3.97-.72,10.28-1.89c1.89-.37,2.97-.64,2.97-.64,5.05-.99,11.09-2.34,17.67-3.79h.1c11.27-2.7,23.89-5.95,34.54-9.56.95-.33,1.89-.67,2.81-1,6.29-2.32-5.87-34.26-11.37-30.29-1.46,1.06-3.02,2.15-4.66,3.27-9.12,6.2-20.74,13.1-31.05,18.91-5.05,2.89-9.83,5.5-13.8,7.67-6.4,3.52-10.64,5.77-10.64,5.77Z"/>
      <path class="cls-1" d="m2297.44,908.1s-.66,21.81,19.75,32.41c23.6-8.52,36.22-43.71,45.96-67.88,1.35-3.33,2.62-6.67,3.87-9.92,4.51-12.08,8.12-23.99,10.28-34.27,1.35-6.13-24.89-37.06-28.23-29.75-5.14,11.63-10.55,26.69-15.6,41.66-2.8,8.21-5.5,16.42-8.21,23.99-1.54,4.6-3.07,8.92-4.51,12.89-2.8,7.58-5.32,13.71-7.57,17.59-1.45,2.53-5.59,6.04-11.09,10.01-1.46,1.06-3.02,2.15-4.66,3.27Z"/>
    </g>
    <polygon class="cls-4" points="1898.14 430.27 786.1 430.27 773.33 379.43 1884.12 379.43 1898.14 430.27"/>
    <path class="cls-39" d="m842.45,405.3c1.45,4.56-1.44,8.28-6.44,8.31-5.01.03-10.24-3.63-11.68-8.19-1.45-4.56,1.44-8.28,6.44-8.31,5-.03,10.24,3.63,11.68,8.19Z"/>
    <path class="cls-39" d="m879.95,405.04c1.45,4.56-1.44,8.28-6.44,8.31-5,.03-10.24-3.63-11.68-8.19-1.45-4.56,1.44-8.28,6.44-8.31,5.01-.03,10.24,3.63,11.68,8.19Z"/>
    <path class="cls-39" d="m917.45,404.78c1.45,4.56-1.44,8.28-6.44,8.31-5.01.03-10.24-3.63-11.68-8.19-1.45-4.56,1.44-8.28,6.44-8.31,5.01-.03,10.24,3.63,11.68,8.19Z"/>
    <path class="cls-8" d="m930.44,546.73s130.89.5,225.81,73.26c94.92,72.77,81.24,138.06,160,154.42,129.06,26.82,48.94-110.93,216.54-96.6l86.23,331.22h-579.88l-44.19-205.27-64.52-257.04Z"/>
    <path class="cls-2" d="m1346.13,779.1c-8.88,0-18.85-1.18-30.12-3.52-43.47-9.03-59.5-33.42-79.79-64.3-16.81-25.58-37.74-57.42-80.69-90.35-26.96-20.67-74.53-48.5-148.02-63.7-43.96-9.09-76.75-9.32-77.08-9.32v-2.39c.34,0,33.36.23,77.56,9.37,40.8,8.44,99.77,26.41,148.99,64.14,43.27,33.17,64.32,65.2,81.23,90.93,20.77,31.6,35.78,54.44,78.28,63.27,60.53,12.58,74.21-11.21,90.06-38.75,17.66-30.68,37.68-65.46,126.34-57.87l-.2,2.38c-87.16-7.45-106.76,26.62-124.07,56.68-8.02,13.93-15.6,27.1-29.03,35.23-9.05,5.47-19.99,8.19-33.46,8.19Z"/>
    <path class="cls-13" d="m961.01,667.76l33.28,132.6,44.86,208.68h579.88l-29.24-108.35s-85.84-47.84-202.25-6.14c-116.41,41.7-245.28,3.21-253.57-90.58-9.35-105.76-106.52-156.7-172.96-136.2Z"/>
    <path class="cls-2" d="m1107.51,730.49c-33.33-51.53-94.8-77.44-146.16-61.59l-.7-2.28c52.36-16.15,114.97,10.16,148.87,62.58l-2,1.3Z"/>
    <rect class="cls-2" x="1305.56" y="765" width="18.94" height="18.94" transform="translate(86.55 -131.04) rotate(5.9)"/>
    <rect class="cls-2" x="1324.72" y="614.46" width="3.14" height="324.24" transform="translate(296.24 1917.24) rotate(-78.27)"/>
    <path class="cls-2" d="m1162.15,743.05c.31-2.99,2.98-5.16,5.97-4.85s5.16,2.98,4.85,5.97-2.98,5.16-5.97,4.85c-2.99-.31-5.16-2.98-4.85-5.97Z"/>
    <path class="cls-2" d="m1479.61,808.99c.31-2.99,2.98-5.16,5.97-4.85,2.99.31,5.16,2.98,4.85,5.97-.31,2.99-2.98,5.16-5.97,4.85-2.99-.31-5.16-2.98-4.85-5.97Z"/>
    <rect class="cls-2" x="1082.54" y="571.34" width="18.94" height="18.94" transform="translate(695.88 -590.9) rotate(43.31)"/>
    <rect class="cls-2" x="1088.39" y="502.32" width="3.14" height="151.96" transform="translate(-88.97 942.39) rotate(-45.11)"/>
    <path class="cls-2" d="m1031.91,521.25c1.89-2.33,5.32-2.69,7.65-.8,2.33,1.89,2.69,5.32.8,7.65-1.89,2.33-5.32,2.69-7.65.8-2.33-1.89-2.69-5.32-.8-7.65Z"/>
    <path class="cls-2" d="m1139.57,628.5c1.89-2.33,5.32-2.69,7.65-.8s2.69,5.32.8,7.65c-1.89,2.33-5.32,2.69-7.65.8-2.33-1.89-2.69-5.32-.8-7.65Z"/>
    <rect class="cls-2" x="1445.58" y="676.99" width="18.94" height="18.94" transform="translate(254.56 1757.55) rotate(-67)"/>
    <rect class="cls-2" x="1406.93" y="684.68" width="96.92" height="3.14" transform="translate(225.64 1723.94) rotate(-65.4)"/>
    <path class="cls-2" d="m1433.49,735.47c-2.84-.97-4.37-4.05-3.4-6.9.96-2.84,4.05-4.37,6.9-3.4,2.84.96,4.37,4.05,3.4,6.9-.97,2.84-4.05,4.37-6.9,3.4Z"/>
    <path class="cls-2" d="m1473.8,647.33c-2.84-.97-4.37-4.05-3.4-6.9.96-2.84,4.05-4.37,6.9-3.4,2.84.96,4.37,4.05,3.4,6.9-.97,2.84-4.05,4.37-6.9,3.4Z"/>
    <path class="cls-18" d="m1552.51,489.3l29.47,121.81c1.26,5.21-3.66,9.44-10.99,9.44h-303.16c-7.33,0-14.29-4.23-15.55-9.44l-29.47-121.81c-1.26-5.21,3.66-9.44,10.99-9.44h303.16c7.33,0,14.29,4.23,15.55,9.44Z"/>
    <g>
      <g>
        <polygon class="cls-38" points="1299.65 560.55 1267.39 560.55 1259.58 528.28 1291.84 528.28 1299.65 560.55"/>
        <polygon class="cls-38" points="1319.69 576.68 1287.42 576.68 1279.62 544.42 1311.88 544.42 1319.69 576.68"/>
      </g>
      <g>
        <polygon class="cls-38" points="1374.98 560.55 1342.71 560.55 1334.91 528.28 1367.17 528.28 1374.98 560.55"/>
        <g>
          <polygon class="cls-22" points="1395.01 576.68 1362.75 576.68 1354.94 544.42 1387.21 544.42 1395.01 576.68"/>
          <path class="cls-34" d="m1396.72,578.06h-35.02l-8.47-35.02h35.02l8.47,35.02Zm-32.93-2.76h29.51l-7.14-29.51h-29.51l7.14,29.51Z"/>
        </g>
      </g>
      <g>
        <polygon class="cls-22" points="1450.3 560.55 1418.04 560.55 1410.23 528.28 1442.5 528.28 1450.3 560.55"/>
        <path class="cls-38" d="m1452.01,561.93h-35.02l-8.47-35.02h35.02l8.47,35.02Zm-32.93-2.76h29.51l-7.14-29.51h-29.51l7.14,29.51Z"/>
        <polygon class="cls-22" points="1470.34 576.68 1438.07 576.68 1430.27 544.42 1462.53 544.42 1470.34 576.68"/>
        <path class="cls-38" d="m1472.05,578.06h-35.02l-8.47-35.02h35.02l8.47,35.02Zm-32.93-2.76h29.51l-7.14-29.51h-29.51l7.14,29.51Z"/>
        <polygon class="cls-38" points="1452.01 561.86 1433.01 561.86 1428.45 543.03 1447.45 543.03 1452.01 561.86"/>
      </g>
      <g>
        <polygon class="cls-38" points="1525.63 560.55 1493.36 560.55 1485.56 528.28 1517.82 528.28 1525.63 560.55"/>
        <polygon class="cls-38" points="1545.67 576.68 1513.4 576.68 1505.59 544.42 1537.86 544.42 1545.67 576.68"/>
        <polygon class="cls-22" points="1524.72 559.77 1509.94 559.77 1506.39 545.12 1521.17 545.12 1524.72 559.77"/>
      </g>
    </g>
    <path class="cls-4" d="m713.77,873.94h-111.72c-14.9,0-29.65-12.08-32.95-26.98l-84.06-379.52c-3.3-14.9,6.1-26.98,21-26.98h111.72c14.9,0,29.65,12.08,32.95,26.98l84.06,379.52c3.3,14.9-6.1,26.98-21,26.98Z"/>
    <rect class="cls-29" x="498.04" y="525.81" width="165.67" height=".72"/>
    <rect class="cls-29" x="517.85" y="615.23" width="165.67" height=".72"/>
    <rect class="cls-29" x="537.66" y="704.66" width="165.67" height=".72"/>
    <path class="cls-2" d="m599.39,499.44c.21-1.92-8.35-34.82-8.35-34.82l30.37,24.6-14.92-.53-7.1,10.76Z"/>
    <path class="cls-18" d="m690.91,835.06h-58.84l-13.02-58.76h58.84l13.01,58.76Zm-56.21-3.27h52.14l-11.56-52.22h-52.14l11.56,52.22Z"/>
    <polygon class="cls-7" points="648.64 801.64 593.15 801.64 580.86 746.15 636.35 746.15 648.64 801.64"/>
    <rect class="cls-7" x="619.82" y="803.31" width="70.32" height="4.74" transform="translate(-383.11 827.56) rotate(-52.1)"/>
    <g>
      <path class="cls-18" d="m524.69,499.44c.21-1.92-8.35-34.82-8.35-34.82l30.37,24.6-14.92-.53-7.1,10.76Z"/>
      <g>
        <polygon class="cls-18" points="536.45 564.63 531.98 564.63 530.21 556.64 560.56 556.64 562.26 564.31 557.79 564.31 557.08 561.11 535.67 561.11 536.45 564.63"/>
        <polygon class="cls-18" points="553.71 584.12 549.23 584.12 543.64 558.88 548.12 558.88 553.71 584.12"/>
        <polygon class="cls-18" points="557.73 585.71 545.91 585.71 544.92 581.24 556.74 581.24 557.73 585.71"/>
      </g>
      <polygon class="cls-18" points="618.26 588.5 614.22 585.59 635.54 552.05 639.58 554.96 618.26 588.5"/>
      <g>
        <path class="cls-18" d="m567.03,666.68c-8.54,0-17.02-6.94-18.91-15.48-1.89-8.54,3.52-15.48,12.05-15.48s17.02,6.94,18.91,15.48c1.89,8.54-3.52,15.48-12.05,15.48Zm-5.95-26.87c-6.28,0-10.26,5.11-8.87,11.39,1.39,6.28,7.63,11.39,13.91,11.39s10.26-5.11,8.87-11.39c-1.39-6.28-7.63-11.39-13.91-11.39Z"/>
        <path class="cls-18" d="m596.48,680.11c-.53,0-1.12-.21-1.61-.62l-20.58-17.33c-.96-.81-1.23-2.11-.59-2.89.64-.78,1.94-.76,2.9.05l20.58,17.33c.96.81,1.23,2.11.59,2.89-.31.38-.78.57-1.29.57Z"/>
      </g>
      <polygon class="cls-18" points="641.08 634.29 648.74 648.31 663.49 648.31 653.48 656.98 661.14 671.01 647.29 662.34 637.28 671.01 638.73 656.98 624.88 648.31 639.63 648.31 641.08 634.29"/>
    </g>
    <path class="cls-27" d="m2065.34,511.52s.4,22.1-2.91,21.69c-3.32-.41-7.82-18.53-7.85-18.26-.04.27,1.5,19.05-2.67,19.99-4.17.94-8.4-19.88-8.4-19.88,0,0,2.8,17.87-.14,18.34-2.93.48-7.55-16.85-8.76-16.9-1.21-.05,3.89,14.86.32,15.62-3.57.76-11.55-20.21-8.84-22.88,2.7-2.67,6.91.19,6.91.19,0,0,5.19-3.85,9.18-1.67,0,0,9.35-1.87,12.16,2.28,0,0,5.83-5.02,11,1.49Z"/>
    <g>
      <path class="cls-18" d="m2125.66,426.87l75.81,273.36c3.24,11.7-4.16,21.18-16.53,21.18h-511.73c-12.37,0-25.03-9.48-28.27-21.18l-75.81-273.36c-3.24-11.7,4.16-21.18,16.53-21.18h511.73c12.37,0,25.03,9.48,28.27,21.18Z"/>
      <g>
        <polygon class="cls-12" points="1727.69 550.2 1661.6 550.2 1643.27 484.11 1709.36 484.11 1727.69 550.2"/>
        <polygon class="cls-33" points="1707.01 534.01 1673.3 534.01 1663.95 500.3 1697.66 500.3 1707.01 534.01"/>
        <rect class="cls-7" x="1644.71" y="514.56" width="81.54" height="5.19" transform="translate(279.2 1580.48) rotate(-54.15)"/>
        <polygon class="cls-7" points="1680.65 514.37 1614.56 514.37 1596.23 448.29 1662.32 448.29 1680.65 514.37"/>
      </g>
      <g>
        <polygon class="cls-7" points="1718.19 628.18 1665.06 628.18 1650.33 575.05 1703.46 575.05 1718.19 628.18"/>
        <polygon class="cls-31" points="1770.83 628.18 1717.7 628.18 1702.97 575.05 1756.1 575.05 1770.83 628.18"/>
        <polygon class="cls-21" points="1823.96 628.18 1770.83 628.18 1756.1 575.05 1809.23 575.05 1823.96 628.18"/>
        <polygon class="cls-22" points="1877.1 628.18 1823.96 628.18 1809.23 575.05 1862.36 575.05 1877.1 628.18"/>
        <polygon class="cls-1" points="1930.23 628.18 1877.1 628.18 1862.36 575.05 1915.49 575.05 1930.23 628.18"/>
        <polygon class="cls-19" points="1983.36 628.18 1930.23 628.18 1915.49 575.05 1968.62 575.05 1983.36 628.18"/>
        <polygon class="cls-33" points="2036.49 628.18 1983.36 628.18 1968.62 575.05 2021.75 575.05 2036.49 628.18"/>
        <polygon class="cls-38" points="2089.62 628.18 2036.49 628.18 2021.75 575.05 2074.88 575.05 2089.62 628.18"/>
        <polygon class="cls-30" points="1732.93 681.31 1679.8 681.31 1665.06 628.18 1718.19 628.18 1732.93 681.31"/>
        <polygon class="cls-1" points="1785.57 681.31 1732.44 681.31 1717.7 628.18 1770.83 628.18 1785.57 681.31"/>
        <polygon class="cls-33" points="1838.7 681.31 1785.57 681.31 1770.83 628.18 1823.96 628.18 1838.7 681.31"/>
        <polygon class="cls-38" points="1891.83 681.31 1838.7 681.31 1823.96 628.18 1877.1 628.18 1891.83 681.31"/>
      </g>
      <path class="cls-21" d="m2092.23,471.08h-278.31c-3.82,0-7.82-3.13-8.88-6.95h0c-1.06-3.82,1.2-6.95,5.03-6.95h278.31c3.82,0,7.82,3.13,8.88,6.95h0c1.06,3.82-1.2,6.95-5.03,6.95Z"/>
      <path class="cls-22" d="m2101.97,506.2h-278.31c-3.83,0-7.82-3.13-8.88-6.95h0c-1.06-3.82,1.2-6.95,5.03-6.95h278.31c3.82,0,7.82,3.13,8.88,6.95h0c1.06,3.82-1.2,6.95-5.03,6.95Z"/>
      <path class="cls-33" d="m2111.71,541.31h-278.31c-3.82,0-7.82-3.13-8.88-6.95h0c-1.06-3.82,1.2-6.95,5.02-6.95h278.31c3.82,0,7.82,3.13,8.88,6.95h0c1.06,3.82-1.2,6.95-5.03,6.95Z"/>
      <g>
        <path class="cls-33" d="m1766.6,453.9h8.38c4.4,0,7.64,2.36,8.64,5.99.86,3.09-.48,4.94-2.91,5.69l7.05,7.12h-3.89l-6.49-6.55h-4.08l1.82,6.55h-3.3l-5.21-18.8Zm10.72,9.32c2.36,0,3.53-1.24,2.98-3.2-.56-2.01-2.31-3.12-4.76-3.12h-4.81l1.75,6.31h4.83Z"/>
        <path class="cls-33" d="m1776.26,498.79c-1.46-5.26,1.33-9.72,7-9.72,3.28,0,5.54.91,7.93,2.55l-1.4,2.5c-1.79-1.24-3.43-2.01-5.82-2.01-3.46,0-5.25,3.03-4.24,6.69,1.07,3.87,4.41,6.71,8.25,6.71,1.77,0,3.23-.56,4.14-1.42l-.98-3.52h-4.81l-.8-2.87h8l2.19,7.9c-1.41,1.58-3.7,2.93-7.03,2.93-5.88,0-10.91-4.19-12.45-9.72Z"/>
        <path class="cls-33" d="m1786.77,526.63h8.43c2.15,0,4,.59,5.38,1.67,1.06.83,1.78,1.85,2.14,3.17.62,2.26-.33,3.46-1.52,4.19,2.41.75,4.29,2.01,5.01,4.62.93,3.36-1.34,5.16-5.53,5.16h-8.7l-5.21-18.8Zm9.96,7.92c2.12,0,3.31-.83,2.82-2.61-.41-1.48-1.84-2.39-3.97-2.39h-4.75l1.38,5h4.51Zm3.17,7.95c2.26,0,3.38-.89,2.9-2.63-.44-1.58-1.96-2.52-4.57-2.52h-5.24l1.43,5.16h5.48Z"/>
      </g>
    </g>
    <g>
      <path class="cls-32" d="m1065.04,460.07c-1.47,1.69-1.66,3.58-.93,5.59,0,0,0,.02.01.03,1.35,3.73,5.81,7.89,10.98,12.05.66.53,1.25,1.02,1.76,1.47.13.12.27.24.4.35.1.09.2.19.3.27,4.83,4.45,3.01,5.47,11.68,14.5,9.89,10.29,16.7,10.47,18.64,9.54,1.64-.8-1.69-6.26-5.38-12.39-.18-.3-.35-.59-.54-.89-.49-.82-.98-1.64-1.47-2.46-4.32-7.38-3.21-10.85-2.19-21.83.83-8.93,13.89-49.88,13.89-49.88l-18.95-3.26s-5.71,32.61-12,37.63c-3.36,2.68-7.13,2.71-10.36,4.69-.23.14-.45.28-.67.42-1.84,1.22-3.71,2.47-5.19,4.17Z"/>
      <path class="cls-36" d="m1065.04,460.07c-1.47,1.69-1.66,3.58-.93,5.59,0,0,0,.02.01.03,1.65,3.72,6,7.87,11,12.01.65.54,1.23,1.04,1.74,1.51.13.12.27.24.4.35.1.09.2.19.3.27,4.83,4.45,3.01,5.47,11.68,14.5,9.89,10.29,16.7,10.47,18.64,9.54,1.64-.8-1.69-6.26-5.38-12.39-1.93-.71-10.87-4.34-17.63-12.99-5.74-7.32-9.63-16.66-13.54-22.38-.43-.08-.69-.13-1.11-.21-1.84,1.22-3.71,2.47-5.19,4.17Z"/>
      <path class="cls-32" d="m1217.85,448.23c1.17,5.85,9.51,4.87,18.83,2.6,9.32-2.28,7.1.43,20.36-1.04,13.26-1.47,17.28-6.41,17.68-8.38.36-1.75-6.19-2.37-13.22-3.18-.88-.1-1.77-.21-2.66-.32-7.93-1-13.74-6.12-20.95-10.32-6.83-3.98-17.01-20.21-17.01-20.21l-18.18,1.44s9.54,14.49,13.23,20.79c2.17,3.71,2.06,8.61,1.79,12.39-.14,2.06-.27,4.16.14,6.22Z"/>
      <path class="cls-36" d="m1236.68,450.83c9.32-2.28,7.1.43,20.36-1.04,13.26-1.47,17.28-6.41,17.68-8.38.36-1.75-6.19-2.37-13.22-3.18l-.07.14s-7.95,5.64-18.99,5.9c-9,.22-18.52-2.36-24.74-2.26-.14,2.06-.27,4.16.14,6.22,1.17,5.85,9.51,4.87,18.83,2.6Z"/>
      <path class="cls-23" d="m1148.17,331.96l-17,45.74-22.19,59.72s-6.02.58-11.79-1.08c-5.31-1.54-11.4-5.55-11.4-5.55,0,0,6.16-64.13,17.66-100.94,2.95-9.45,6.25-17.09,9.89-21.39,17.82-21.06,34.84,23.49,34.84,23.49Z"/>
      <path class="cls-8" d="m1130.88,259.32c-9.68-3.12-34.92-.05-62.31,4.91-7.57,1.37-15.19-2.09-19.18-8.66h0l-68.92-5.38s-22.74,50.43-10.29,82.56c1.83,4.72,5.85,7.67,12.04,7.77,0,0,0,0,0,0,0,0,41.64.06,54.96.06,34.27,0,72.53-23.56,77.48-24.55,8.1-1.62,11.34,14.58,19.44,31.59s76.15,75.34,76.15,75.34c0,0,10.46.1,14.78-1.52,4.65-1.74,6.35-4.01,6.35-4.01,0,0-75.4-150.02-100.52-158.12Z"/>
      <path class="cls-15" d="m1042.08,53.19c-5.12-3.05-10.11-3.51-13.16-3.43-2.13.06-4.25-.08-6.36-.39-26.3-3.86-42.14,34.35-43.07,45.89-1.7,21.19-12.92,24.43-28.7,37.7-31.64,26.61-22.36,57.54-5.06,69.03,10.38,6.89,28.68,0,28.68,0,.26.18,50.04-27.83,74.58-41.34,36.79-5.23,7.86-98.67-6.92-107.47Z"/>
      <path class="cls-32" d="m1028.42,149.16c.11.07-12.07,4.23-20.22.62-7.66-3.39-13.47-16-13.36-16,3.49-.16,7.31-3.21,10.26-23.21l1.48.53,24.96,8.98s-1.81,8.01-2.98,15.63c-.98,6.4-1.51,12.53-.15,13.44Z"/>
      <path class="cls-28" d="m1031.55,120.08s-1,4.32-2.45,12.39c-14.34-2.58-20.49-13.62-22.51-21.37l24.96,8.98Z"/>
      <path class="cls-32" d="m1035.27,128.03s-34.15-4.58-30.97-25.81c3.18-21.22.92-36.11,22.86-34.08,21.94,2.03,24.95,10.76,25.61,18.1.66,7.34-8.53,42.43-17.5,41.78Z"/>
      <path class="cls-15" d="m1051.52,74.62s-21.86,18.84-36.73,20.36c-14.87,1.52-20.5-3.25-20.5-3.25,0,0,8.76-7.28,14.04-19.02,1.55-3.46,4.84-5.84,8.62-6.16,10.62-.92,30.75-1.33,34.57,8.08Z"/>
      <path class="cls-15" d="m1037.86,72.93s7.31,7.07,9.62,12.32c2.22,5.06,2.89,17.17,1.12,21.97,0,0,11.39-22.16,4.94-32.92-6.84-11.41-15.68-1.37-15.68-1.37Z"/>
      <path class="cls-1" d="m1057.18,199.46c-1.03,69.13-.28,54.68-7.84,61.24-1.82,1.58-6.94,2.52-13.69,2.97-21.2,1.41-58.46-2.09-59.87-6-4.89-13.55-1.44-17.76-5.52-38.52-.42-2.21-.95-4.6-1.57-7.2-3.4-14.25-6.71-19.1,5.35-42,10.94-20.74,22.31-37.57,23.33-36.97,28.87,17.14,31.2,2.73,31.2,2.73,0,0,29.11,30.02,28.61,63.74Z"/>
      <path class="cls-8" d="m1131.17,377.7l-22.19,59.72s-6.02.58-11.79-1.08c-5.31-1.54-11.4-5.55-11.4-5.55,0,0,6.16-64.13,17.66-100.94l27.73,47.84Z"/>
      <path class="cls-1" d="m1028.58,135.72s29.71,5.04,33.19,17.83c3.49,12.79,14.97,90.42,14.97,90.42,0,0-8.38,8.18-15.35,1.2-6.98-6.98-21.95-72.63-21.95-72.63l-10.86-36.82Z"/>
      <path class="cls-9" d="m1035.65,263.67c-21.2,1.41-58.46-2.09-59.87-6-4.89-13.55-1.44-17.76-5.52-38.52l10.22-28.79s-1.69,32.06,7.76,40.49c9.44,8.43,38.71,16.28,43.3,23.32,2.22,3.38,3.67,6.77,4.1,9.49Z"/>
      <path class="cls-32" d="m1011.36,250.18s20.91-4.66,24.29-2.8c3.37,1.86,11.62,8.61,12.65,10.97,1.03,2.35-7.51-1.79-10.29-2.53-1.8-.48-6.54,1.16-8.88,1.95-9.87,3.29-15.92,1.6-15.92,1.6l-1.85-9.18Z"/>
      <path class="cls-1" d="m997.36,132.97s-28.08,1.73-37.8,15.29c-13.68,19.08-40.83,100.42-25.27,111.26,17.52,12.22,79.73,3.2,79.73,3.2,0,0,2.07-9.68-.81-14.36-2.88-4.68-49.69-12.24-51.85-14.4-2.16-2.16,27.01-42.13,27.01-48.61s8.99-52.37,8.99-52.37Z"/>
      <path class="cls-32" d="m1036.66,253.2s4.38,5.65,5.82,6.33c1.44.67,2.36.51,2.36.51l-2.95-5.31-5.23-1.52Z"/>
      <path class="cls-32" d="m1035.65,247.38l12.74,6.19s-.54.89-2.11.81c-1.57-.07-5.52-1.52-5.52-1.52l-5.1-5.48Z"/>
    </g>
    <g>
      <polygon class="cls-15" points="1144.43 261.93 1011.36 261.93 1011.36 264.86 1143.25 264.86 1144.43 261.93"/>
      <polygon class="cls-15" points="1042.48 264.86 1143.25 264.86 1173.56 189.48 1072.95 189.48 1042.48 264.86"/>
      <path class="cls-39" d="m1117.81,227.17c.76-2.65-.77-4.8-3.42-4.8s-5.41,2.15-6.17,4.8.77,4.8,3.42,4.8,5.41-2.15,6.17-4.8Z"/>
    </g>
    <rect class="cls-2" x="1101.67" y="727.87" width="13.7" height="13.7" transform="translate(754.55 -547.2) rotate(41.03)"/>
    <path class="cls-23" d="m975.67,907.75c-2.06-6.85-3.09-7.47-3.09-7.47,0,0-64.07,7.99-74.94,7.28-6.45-.42-83.4-26.08-83.4-26.08l-46.72,44.8s115.87,19.09,132.2,17.84c26.99-2.07,68.18-25.89,68.18-25.89,0,0,9.39-5.12,7.77-10.5Z"/>
    <path class="cls-20" d="m800.55,1419.2s.9,21.71,5.06,26.99l58,.34c-.41-2.24-.65-7.42-8.67-8.82-10.13-1.76-22.04-8.83-28.17-22.23-6.46-14.09-26.23,3.72-26.23,3.72Z"/>
    <path class="cls-20" d="m686.73,1416.07s-4.04,28.84,1.45,29.35c.73.07,23.37.43,33.18.59,11.53.19,30.48-.21,30.48-.21,2.38.1,3.94-2.48,2.73-4.54-1.33-2.25-3.87-4.66-8.71-5.59-10.1-1.94-26.93-9.36-32.83-22.86-6.21-14.2-26.28,3.26-26.28,3.26Z"/>
    <path class="cls-9" d="m830.7,1120.49s-16.13,56.43-62.35,154.43c-46.22,97.99-48.22,145.22-48.22,145.22,0,0-7,2.47-16.28,1.49-10.04-1.07-17.13-5.55-17.13-5.55,0,0,2.99-116.64,24.83-166.09,21.83-49.45,26.28-184.78,26.28-184.78l92.87,55.29Z"/>
    <path class="cls-1" d="m856.6,1071.93s1.28,87.38-13.83,194.67c-15.12,107.29-8.05,157.18-8.05,157.18,0,0-4.01,2.92-16.33,2.87-14.43-.06-21.82-6.02-21.82-6.02,0,0-21.64-107.33-15.44-161.03,6.2-53.7-29.63-184.27-29.63-184.27l105.1-3.41Z"/>
    <path class="cls-32" d="m821.48,854.12c-.15,6.86-1.07,14.32-3.81,17.98l-15.39,8.08-17.06-12.65s6.25-13.86,4.72-34.13c-.15-1.22-.76-8.99-.76-9.14l8.53,4.26,23.16,11.58s0,.46.15,1.07c.15,2.29.46,7.31.46,12.95Z"/>
    <path class="cls-8" d="m736.23,1082.73c5.58,25.54,125.1,14.33,123.54-1.26-.06-.52-.37-7.74-.8-17.46-.91-21.04-2.29-53.91-2.46-56.48,0-.04-.01-.09-.01-.13-2.15-21.71-4.22-42.94-4.35-56.81-.12-12.03-1.78-24.32-3.98-35.49-2.03-10.3-4.53-19.66-6.7-26.95-1.53-5.14-4.38-9.65-8.15-13.2-2.69-2.52-5.84-4.56-9.31-5.94-.95-.4-1.91-.73-2.9-1.01-14.06-4.08-28.25-9.28-33.52-7.73-14.28,4.2-30.18,29.5-37.69,61.56-14.06,60-17.31,144.27-13.66,160.91Z"/>
    <path class="cls-17" d="m821.48,854.12c-8.68-3.5-25.29-11.43-29.86-20.42-1.98-3.96,1.07-5.18,6.09-5.18l23.16,11.58s0,.46.15,1.07c.15,2.29.46,7.31.46,12.95Z"/>
    <path class="cls-32" d="m832.02,838.68s-41.59,12.97-49.27-13.05c-7.68-26.02-18.22-41.88,8.01-51.26,26.23-9.38,34.34-.98,39.02,7.08,4.68,8.06,12.86,53.19,2.24,57.23Z"/>
    <path class="cls-37" d="m828.15,778.94s-2.65,30.28-8.92,28.97c-6.26-1.31-11.94-2.29-11.03,6.84.92,9.13,1.21,20.1-18.09,21.72-19.3,1.62-38.66-48.59-33.36-58.02,15.3-27.19,93.5-32.68,71.39.49Z"/>
    <path class="cls-23" d="m858.97,1064c-.91-21.04-2.29-53.91-2.46-56.48,0-.04-.01-.09-.01-.13l-70.6-42.21s-2.73,98.55,73.08,98.83Z"/>
    <g>
      <g>
        <path class="cls-37" d="m1102.54,729.42l12.72,11.07s-21.81,23.35-19.78,47.92l-32.56,27.49-26.96-23.47,22.54-37.39s24.17-.88,44.03-25.62Z"/>
        <path class="cls-2" d="m1069.45,769.36c2.63-3.02,7.2-3.34,10.22-.71,3.02,2.63,3.34,7.2.71,10.22-2.63,3.02-7.2,3.34-10.22.71-3.02-2.63-3.34-7.2-.71-10.22Z"/>
        <rect class="cls-2" x="1088.37" y="727.79" width="2.76" height="58.57" transform="translate(764.81 -529.44) rotate(41.04)"/>
      </g>
      <rect class="cls-16" x="1028.63" y="803.06" width="35.75" height="8.98" transform="translate(787.1 -488.61) rotate(41.03)"/>
      <path class="cls-37" d="m762.03,1135.82l-1.31-1.14c-7.09-6.17-7.83-16.91-1.67-24l271.02-311.48,26.97,23.47-271.02,311.48c-6.17,7.09-16.91,7.83-24,1.67Z"/>
    </g>
    <path class="cls-32" d="m914.53,974.77s5.21-4.63,6.43-7.82c.42-1.11,3.97-6.13,10.03-5.69,5.53.41,15.37-11.38,15.37-11.38,1.43,3.12,6.37,14.81-.7,20.73-5.76,4.83-19.64,13.2-28.06,18.7-9.04,5.91-3.08-14.55-3.08-14.55Z"/>
    <path class="cls-8" d="m915.22,973.04s-70.03,11.91-76.24,8.88c-9.9-4.82,3.84-75.88,3.84-75.88,0,0,.59-16.1-18.22-19.9-16.35-3.3-32.12,8.94-32.12,8.94,0,0-14.34,12.83-12.51,27.07,4.06,31.55,10.38,95.73,31.48,105.57,27.22,12.69,105.99-35.18,105.99-35.18,0,0,2.62-3.21,2.25-9.18-.33-5.26-4.48-10.32-4.48-10.32Z"/>
    <path class="cls-32" d="m978.59,912.85s17.68-6.44,16.12-15.48c-1.56-9.04-7.07-7.9-10.39-4.78-3.33,3.12-1.48,19.12-5.73,20.26Z"/>
    <path class="cls-32" d="m919.74,970.14s2.41-7.08,4.98-10.12c2.57-3.04,3.66-8.18,4.83-6.47,1.17,1.71-.93,7.87,0,10.21.94,2.34-9.81,6.38-9.81,6.38Z"/>
    <rect class="cls-29" x="2169.17" y="1335.7" width="316.66" height="109.98"/>
    <rect class="cls-33" x="0" y="1444.96" width="2694.02" height="7.76" rx="3.18" ry="3.18"/>
  </g>
</svg>