<?xml version="1.0" encoding="UTF-8"?>
<svg xmlns="http://www.w3.org/2000/svg" xmlns:xlink="http://www.w3.org/1999/xlink" viewBox="0 0 27.57 38.6">
  <defs>
    <style>
      .cls-1 {
        fill: url(#radial-gradient-10);
      }

      .cls-2 {
        fill: #fff;
      }

      .cls-3 {
        filter: url(#luminosity-noclip-7);
      }

      .cls-4 {
        filter: url(#luminosity-noclip-5);
      }

      .cls-5 {
        fill: url(#radial-gradient-2);
      }

      .cls-5, .cls-6, .cls-7, .cls-8, .cls-9, .cls-10, .cls-11 {
        mix-blend-mode: multiply;
      }

      .cls-12 {
        mask: url(#mask-2);
      }

      .cls-13 {
        isolation: isolate;
      }

      .cls-14 {
        fill: url(#radial-gradient-8);
        mix-blend-mode: screen;
      }

      .cls-6 {
        fill: url(#radial-gradient-4);
      }

      .cls-15 {
        mask: url(#mask-3);
      }

      .cls-7 {
        fill: url(#radial-gradient-9);
      }

      .cls-8 {
        fill: url(#radial-gradient-5);
      }

      .cls-9 {
        fill: url(#radial-gradient);
      }

      .cls-16 {
        fill: url(#radial-gradient-6);
      }

      .cls-17 {
        mask: url(#mask-9);
      }

      .cls-18 {
        mask: url(#mask-5);
      }

      .cls-19 {
        filter: url(#luminosity-noclip-9);
      }

      .cls-20 {
        mask: url(#mask-8);
      }

      .cls-21 {
        mask: url(#mask-4);
      }

      .cls-22 {
        mask: url(#mask-6);
      }

      .cls-23 {
        filter: url(#luminosity-noclip);
      }

      .cls-24 {
        mask: url(#mask-1);
      }

      .cls-25 {
        mask: url(#mask);
      }

      .cls-26 {
        mask: url(#mask-7);
      }

      .cls-10 {
        fill: url(#radial-gradient-3);
      }

      .cls-11 {
        fill: url(#radial-gradient-7);
      }

      .cls-27 {
        filter: url(#luminosity-noclip-3);
      }
    </style>
    <filter id="luminosity-noclip" x="0" y="20.83" width="27.57" height="17.77" color-interpolation-filters="sRGB" filterUnits="userSpaceOnUse">
      <feFlood flood-color="#fff" result="bg"/>
      <feBlend in="SourceGraphic" in2="bg"/>
    </filter>
    <filter id="luminosity-noclip-2" x="0" y="-8368.14" width="27.57" height="32766" color-interpolation-filters="sRGB" filterUnits="userSpaceOnUse">
      <feFlood flood-color="#fff" result="bg"/>
      <feBlend in="SourceGraphic" in2="bg"/>
    </filter>
    <mask id="mask-1" x="0" y="-8368.14" width="27.57" height="32766" maskUnits="userSpaceOnUse"/>
    <radialGradient id="radial-gradient" cx="13.36" cy="-13.16" fx="13.36" fy="-13.16" r="55.81" gradientUnits="userSpaceOnUse">
      <stop offset=".62" stop-color="#000"/>
      <stop offset=".75" stop-color="#010101"/>
      <stop offset=".8" stop-color="#080808"/>
      <stop offset=".84" stop-color="#141414"/>
      <stop offset=".87" stop-color="#262626"/>
      <stop offset=".9" stop-color="#3c3c3c"/>
      <stop offset=".92" stop-color="#585858"/>
      <stop offset=".94" stop-color="#797979"/>
      <stop offset=".96" stop-color="#9f9f9f"/>
      <stop offset=".98" stop-color="#cacaca"/>
      <stop offset="1" stop-color="#f9f9f9"/>
      <stop offset="1" stop-color="#fff"/>
    </radialGradient>
    <mask id="mask" x="0" y="20.83" width="27.57" height="17.77" maskUnits="userSpaceOnUse">
      <g class="cls-23">
        <g class="cls-24">
          <path class="cls-9" d="m16.26,20.83c-5.42,0-10.84,0-16.25,0v16.32c0,1.41,1.07,1.44,1.07,1.44h25.43s1.07-.03,1.07-1.44v-16.33c-3.77,0-7.54,0-11.31,0Z"/>
        </g>
      </g>
    </mask>
    <radialGradient id="radial-gradient-2" cx="13.36" cy="-13.16" fx="13.36" fy="-13.16" r="55.81" gradientUnits="userSpaceOnUse">
      <stop offset=".62" stop-color="#fff"/>
      <stop offset=".79" stop-color="#fdfdfd"/>
      <stop offset=".85" stop-color="#f6f6f6"/>
      <stop offset=".9" stop-color="#eaeaea"/>
      <stop offset=".94" stop-color="#d8d8d8"/>
      <stop offset=".97" stop-color="#c2c2c2"/>
      <stop offset="1" stop-color="#ababab"/>
    </radialGradient>
    <filter id="luminosity-noclip-3" x="0" y="0" width="27.57" height="19.27" color-interpolation-filters="sRGB" filterUnits="userSpaceOnUse">
      <feFlood flood-color="#fff" result="bg"/>
      <feBlend in="SourceGraphic" in2="bg"/>
    </filter>
    <filter id="luminosity-noclip-4" x="0" y="-8368.14" width="27.57" height="32766" color-interpolation-filters="sRGB" filterUnits="userSpaceOnUse">
      <feFlood flood-color="#fff" result="bg"/>
      <feBlend in="SourceGraphic" in2="bg"/>
    </filter>
    <mask id="mask-3" x="0" y="-8368.14" width="27.57" height="32766" maskUnits="userSpaceOnUse"/>
    <radialGradient id="radial-gradient-3" cx="13.91" cy="35.62" fx="13.91" fy="35.62" r="39.99" gradientUnits="userSpaceOnUse">
      <stop offset=".62" stop-color="#000"/>
      <stop offset=".71" stop-color="#020202"/>
      <stop offset=".76" stop-color="#0a0a0a"/>
      <stop offset=".8" stop-color="#181818"/>
      <stop offset=".84" stop-color="#2c2c2c"/>
      <stop offset=".88" stop-color="#454545"/>
      <stop offset=".91" stop-color="#646464"/>
      <stop offset=".94" stop-color="#8a8a8a"/>
      <stop offset=".96" stop-color="#b5b5b5"/>
      <stop offset=".99" stop-color="#e5e5e5"/>
      <stop offset="1" stop-color="#fff"/>
    </radialGradient>
    <mask id="mask-2" x="0" y="0" width="27.57" height="19.27" maskUnits="userSpaceOnUse">
      <g class="cls-27">
        <g class="cls-15">
          <path class="cls-10" d="m0,19.26c2.32,0,4.64,0,6.96,0,6.69,0,13.37,0,20.06,0,.18,0,.37,0,.55,0V1.44c0-1.41-1.07-1.44-1.07-1.44H1.07S0,.03,0,1.44v9.63s0,8.19,0,8.19Z"/>
        </g>
      </g>
    </mask>
    <radialGradient id="radial-gradient-4" cx="13.91" cy="35.62" fx="13.91" fy="35.62" r="39.99" gradientUnits="userSpaceOnUse">
      <stop offset=".62" stop-color="#fff"/>
      <stop offset=".75" stop-color="#fcfcfc"/>
      <stop offset=".82" stop-color="#f4f4f4"/>
      <stop offset=".88" stop-color="#e6e6e6"/>
      <stop offset=".93" stop-color="#d3d3d3"/>
      <stop offset=".98" stop-color="#b9b9b9"/>
      <stop offset="1" stop-color="#ababab"/>
    </radialGradient>
    <filter id="luminosity-noclip-5" x=".51" y="0" width="27.06" height="38.6" color-interpolation-filters="sRGB" filterUnits="userSpaceOnUse">
      <feFlood flood-color="#fff" result="bg"/>
      <feBlend in="SourceGraphic" in2="bg"/>
    </filter>
    <filter id="luminosity-noclip-6" x=".51" y="-8368.14" width="27.06" height="32766" color-interpolation-filters="sRGB" filterUnits="userSpaceOnUse">
      <feFlood flood-color="#fff" result="bg"/>
      <feBlend in="SourceGraphic" in2="bg"/>
    </filter>
    <mask id="mask-5" x=".51" y="-8368.14" width="27.06" height="32766" maskUnits="userSpaceOnUse"/>
    <radialGradient id="radial-gradient-5" cx="-1.18" cy="-.02" fx="-1.18" fy="-.02" r="44.4" gradientUnits="userSpaceOnUse">
      <stop offset=".1" stop-color="#000"/>
      <stop offset="1" stop-color="#fff"/>
    </radialGradient>
    <mask id="mask-4" x=".51" y="0" width="27.06" height="38.6" maskUnits="userSpaceOnUse">
      <g class="cls-4">
        <g class="cls-18">
          <path class="cls-8" d="m27.51,1.44v35.66c0,1.41-1.07,1.44-1.07,1.44H.99s-.23,0-.48-.15c.27.2.56.21.56.21h25.43s1.07-.03,1.07-1.44V1.44c0-1.41-1.07-1.44-1.07-1.44h-.06s1.07.03,1.07,1.44Z"/>
        </g>
      </g>
    </mask>
    <radialGradient id="radial-gradient-6" cx="-1.18" cy="-.02" fx="-1.18" fy="-.02" r="44.4" gradientUnits="userSpaceOnUse">
      <stop offset=".1" stop-color="#fff"/>
      <stop offset="1" stop-color="#ababab"/>
    </radialGradient>
    <filter id="luminosity-noclip-7" x="0" y="0" width="27.06" height="38.6" color-interpolation-filters="sRGB" filterUnits="userSpaceOnUse">
      <feFlood flood-color="#fff" result="bg"/>
      <feBlend in="SourceGraphic" in2="bg"/>
    </filter>
    <filter id="luminosity-noclip-8" x="0" y="-8368.14" width="27.06" height="32766" color-interpolation-filters="sRGB" filterUnits="userSpaceOnUse">
      <feFlood flood-color="#fff" result="bg"/>
      <feBlend in="SourceGraphic" in2="bg"/>
    </filter>
    <mask id="mask-7" x="0" y="-8368.14" width="27.06" height="32766" maskUnits="userSpaceOnUse"/>
    <radialGradient id="radial-gradient-7" cx="7.53" cy="11.23" fx="7.53" fy="11.23" r="37.82" gradientUnits="userSpaceOnUse">
      <stop offset="0" stop-color="#000"/>
      <stop offset="0" stop-color="#090909"/>
      <stop offset=".05" stop-color="#373737"/>
      <stop offset=".09" stop-color="#626262"/>
      <stop offset=".14" stop-color="#878787"/>
      <stop offset=".2" stop-color="#a8a8a8"/>
      <stop offset=".25" stop-color="#c3c3c3"/>
      <stop offset=".32" stop-color="#d9d9d9"/>
      <stop offset=".4" stop-color="#eaeaea"/>
      <stop offset=".49" stop-color="#f6f6f6"/>
      <stop offset=".63" stop-color="#fdfdfd"/>
      <stop offset="1" stop-color="#fff"/>
    </radialGradient>
    <mask id="mask-6" x="0" y="0" width="27.06" height="38.6" maskUnits="userSpaceOnUse">
      <g class="cls-3">
        <g class="cls-26">
          <path class="cls-11" d="m.06,37.16V1.5C.06.08,1.12.06,1.12.06h25.46s.23,0,.48.15c-.28-.2-.56-.21-.56-.21H1.07S0,.03,0,1.44v9.63s0,16.46,0,16.46v9.63c0,1.41,1.07,1.44,1.07,1.44h.06s-1.07-.03-1.07-1.44Z"/>
        </g>
      </g>
    </mask>
    <radialGradient id="radial-gradient-8" cx="7.53" cy="11.23" fx="7.53" fy="11.23" r="37.82" gradientUnits="userSpaceOnUse">
      <stop offset="0" stop-color="#fff"/>
      <stop offset=".14" stop-color="#fff"/>
      <stop offset="1" stop-color="#fff"/>
    </radialGradient>
    <filter id="luminosity-noclip-9" x="0" y="2.79" width=".06" height="33.28" color-interpolation-filters="sRGB" filterUnits="userSpaceOnUse">
      <feFlood flood-color="#fff" result="bg"/>
      <feBlend in="SourceGraphic" in2="bg"/>
    </filter>
    <filter id="luminosity-noclip-10" x="0" y="-8368.14" width=".06" height="32766" color-interpolation-filters="sRGB" filterUnits="userSpaceOnUse">
      <feFlood flood-color="#fff" result="bg"/>
      <feBlend in="SourceGraphic" in2="bg"/>
    </filter>
    <mask id="mask-9" x="0" y="-8368.14" width=".06" height="32766" maskUnits="userSpaceOnUse"/>
    <radialGradient id="radial-gradient-9" cx="2721.02" cy="-.02" fx="2721.02" fy="-.02" r="44.39" gradientTransform="translate(2749.75) rotate(-180) scale(1 -1)" xlink:href="#radial-gradient-5"/>
    <mask id="mask-8" x="0" y="2.79" width=".06" height="33.28" maskUnits="userSpaceOnUse">
      <g class="cls-19">
        <g class="cls-17">
          <path class="cls-7" d="m0,2.79v33.28c.02-.07.04-.13.06-.2v-8.38s0-24.09,0-24.09c-.02-.2-.04-.4-.06-.6Z"/>
        </g>
      </g>
    </mask>
    <radialGradient id="radial-gradient-10" cx="2721.02" cy="-.02" fx="2721.02" fy="-.02" r="44.39" gradientTransform="translate(2749.75) rotate(-180) scale(1 -1)" xlink:href="#radial-gradient-6"/>
  </defs>
  <g class="cls-13">
    <g id="Layer_2" data-name="Layer 2">
      <g id="Layer_1-2" data-name="Layer 1">
        <g>
          <g>
            <g>
              <g>
                <path class="cls-2" d="m26.5,0H1.07S0,.03,0,1.44v9.63s0,16.46,0,16.46v9.63c0,1.41,1.07,1.44,1.07,1.44h25.43s1.07-.03,1.07-1.44V1.44c0-1.41-1.07-1.44-1.07-1.44Z"/>
                <g class="cls-25">
                  <path class="cls-5" d="m16.26,20.83c-5.42,0-10.84,0-16.25,0v16.32c0,1.41,1.07,1.44,1.07,1.44h25.43s1.07-.03,1.07-1.44v-16.33c-3.77,0-7.54,0-11.31,0Z"/>
                </g>
                <g class="cls-12">
                  <path class="cls-6" d="m0,19.26c2.32,0,4.64,0,6.96,0,6.69,0,13.37,0,20.06,0,.18,0,.37,0,.55,0V1.44c0-1.41-1.07-1.44-1.07-1.44H1.07S0,.03,0,1.44v9.63s0,8.19,0,8.19Z"/>
                </g>
              </g>
              <g class="cls-21">
                <path class="cls-16" d="m27.51,1.44v35.66c0,1.41-1.07,1.44-1.07,1.44H.99s-.23,0-.48-.15c.27.2.56.21.56.21h25.43s1.07-.03,1.07-1.44V1.44c0-1.41-1.07-1.44-1.07-1.44h-.06s1.07.03,1.07,1.44Z"/>
              </g>
              <g class="cls-22">
                <path class="cls-14" d="m.06,37.16V1.5C.06.08,1.12.06,1.12.06h25.46s.23,0,.48.15c-.28-.2-.56-.21-.56-.21H1.07S0,.03,0,1.44v9.63s0,16.46,0,16.46v9.63c0,1.41,1.07,1.44,1.07,1.44h.06s-1.07-.03-1.07-1.44Z"/>
              </g>
              <g class="cls-20">
                <path class="cls-1" d="m0,2.79v33.28c.02-.07.04-.13.06-.2v-8.38s0-24.09,0-24.09c-.02-.2-.04-.4-.06-.6Z"/>
              </g>
            </g>
            <g>
              <g>
                <g>
                  <path d="m2.19,7.41c-.06.72-.46,1.22-.46,1.22h.93s-.4-.5-.46-1.22Z"/>
                  <path d="m3.06,6.35c-.58-.4-.86-.81-.87-.82h0s0,0,0,0h0s0,0,0,0c0,.01-.29.43-.87.82-.58.4-.72.91-.51,1.28.21.38,1.04.56,1.37-.19.33.75,1.17.57,1.37.19.21-.38.08-.88-.51-1.28Z"/>
                </g>
                <path d="m2.59,5.02v-.12c.08-.02.14-.03.18-.05.04-.02.07-.05.09-.08.02-.03.03-.08.03-.14,0-.06,0-.11-.02-.18-.01-.06-.03-.14-.06-.22l-.09-.31h-1.14l-.08.24c-.04.12-.07.21-.08.27-.01.06-.02.12-.02.17,0,.1.02.17.07.21.05.05.13.08.23.09v.12H.67v-.12c.09-.01.17-.07.24-.16.07-.09.13-.22.2-.39l1.02-2.7h.39l.83,2.72c.04.13.07.22.1.29.03.07.07.12.11.16.04.04.1.06.17.08v.12h-1.12Zm-.94-1.32h1.02l-.46-1.57-.56,1.57Z"/>
              </g>
              <g>
                <g>
                  <path d="m25.3,31.12c.06-.72.46-1.22.46-1.22h-.93s.4.5.46,1.22Z"/>
                  <path d="m24.44,32.18c.58.4.86.81.87.82h0s0,0,0,0h0s0,0,0,0c0-.01.29-.43.87-.82.58-.4.72-.91.51-1.28-.21-.38-1.04-.56-1.37.19-.33-.75-1.17-.57-1.37-.19-.21.38-.08.88.51,1.28Z"/>
                </g>
                <path d="m24.9,33.51v.12c-.08.02-.14.03-.18.05-.04.02-.07.05-.09.08s-.03.08-.03.14c0,.06,0,.11.02.18.01.06.03.14.06.22l.09.31h1.14l.08-.24c.04-.12.07-.21.08-.27.01-.06.02-.12.02-.17,0-.1-.02-.17-.07-.21-.05-.05-.13-.08-.23-.09v-.12h1.04v.12c-.09.01-.17.07-.24.16-.07.09-.13.22-.2.39l-1.02,2.7h-.39l-.83-2.72c-.04-.13-.07-.22-.1-.29s-.07-.12-.11-.16c-.04-.04-.1-.07-.17-.08v-.12h1.12Zm.94,1.32h-1.02l.46,1.57.56-1.57Z"/>
              </g>
            </g>
          </g>
          <g>
            <g>
              <g>
                <path d="m20.33,18.92c-.06-.02-.12-.03-.17-.03.17-.08.31-.22.37-.42.1-.35-.1-.72-.45-.83-.16-.05-.33-.03-.48.04.14-.08.25-.21.3-.38.1-.35-.1-.72-.45-.83-.19-.06-.38-.02-.53.07.14-.12.22-.3.22-.49,0-.37-.3-.66-.66-.66-.12,0-.24.03-.34.09.1-.12.17-.27.17-.44,0-.37-.3-.66-.66-.66-.1,0-.2.02-.29.07.07-.11.11-.23.11-.37,0-.37-.3-.66-.66-.66-.11,0-.22.03-.31.08.09-.11.14-.25.14-.41,0-.37-.3-.66-.66-.66-.07,0-.13.01-.2.03.07-.11.12-.24.12-.37,0-.37-.3-.66-.66-.66-.12,0-.24.03-.34.09.1-.12.17-.27.17-.44,0-.32-.23-.59-.54-.65-.12-.31-.36-.61-.71-.57-.34.04-.56.26-.61.57-.32.05-.56.32-.56.66,0,.17.06.32.17.44-.1-.06-.21-.09-.34-.09-.37,0-.66.3-.66.66,0,.14.04.27.12.37-.06-.02-.13-.03-.2-.03-.37,0-.66.3-.66.66,0,.15.05.3.14.41-.09-.05-.2-.08-.31-.08-.37,0-.66.3-.66.66,0,.14.04.27.11.37-.09-.04-.19-.07-.29-.07-.37,0-.66.3-.66.66,0,.17.06.32.17.44-.1-.06-.21-.09-.34-.09-.37,0-.66.3-.66.66,0,.2.09.37.22.49-.15-.09-.35-.13-.53-.07-.35.1-.55.47-.45.83.05.17.16.3.3.38-.14-.07-.31-.09-.48-.04-.35.1-.55.47-.45.83.06.19.2.34.37.42-.06,0-.12,0-.17.03-.35.1-.55.47-.45.83.09.31.4.5.71.47,0,0,0,.02,0,.03-.2.03-.39.14-.49.34-.18.32-.06.72.26.9.2.11.43.11.62.01-.11.13-.16.3-.15.48.04.36.36.63.72.6.24-.02.43-.17.53-.37-.06.17-.06.36.03.53.17.33.56.46.89.29.16-.08.27-.21.32-.37.03.14.11.27.23.36.29.23.7.18.93-.1.11-.14.16-.3.14-.47.07.08.15.14.26.18.34.13.73-.04.86-.38.06-.16.06-.34,0-.49.24.09.51,0,.66-.21.1-.15.12-.34.07-.5.13-.01.24-.07.32-.17.08.1.2.16.32.17-.05.16-.03.35.07.5.15.22.43.3.66.21-.06.15-.07.32,0,.49.13.34.51.51.86.38.1-.04.19-.1.26-.18-.01.16.03.33.14.47.23.29.65.33.93.1.12-.1.2-.23.23-.36.06.15.17.29.32.37.33.17.73.03.89-.29.09-.17.09-.36.03-.52,0,0,0,0,0,0,.1.2.29.34.53.36.36.04.69-.23.72-.6.02-.18-.04-.35-.15-.48.19.09.42.1.62-.01.32-.18.44-.58.26-.9-.1-.19-.29-.3-.48-.33,0,0,0-.02,0-.03.31.03.6-.16.7-.47.1-.35-.1-.72-.45-.83Zm-.47-1.04c.28.08.43.37.35.65-.04.12-.12.22-.21.28-.02-.06-.03-.11-.05-.17.01-.02.02-.05.03-.07.06-.21-.05-.44-.26-.51-.03-.06-.06-.13-.09-.19.08-.02.16-.01.24,0Zm-5.69,2.46c0-.05.04-.1.1-.1s.1.04.1.1-.04.1-.1.1-.1-.04-.1-.1Zm-6.01-2.63s.02,0,.03.01c0,0,0,0,0,0,0,0-.02-.01-.03-.02Zm.73-1.09s.02,0,.02.01c0,0,0,0,0,0,0,0-.01-.01-.02-.02Zm.84-1.01s0,0,.01,0c0,0,0,0,0,0,0,0,0,0,0-.01Zm1.7-1.95s.04.02.06.03c0,0-.02.02-.02.03-.01-.02-.02-.04-.04-.06Zm.86-.96s.02,0,.03,0c0,0-.01.01-.02.02,0-.01-.01-.02-.02-.03Zm.78-.94s-.05-.09-.09-.13c.04.03.09.04.14.06-.02.02-.04.05-.05.07Zm1.54-.08s.09-.03.13-.06c-.03.04-.06.08-.08.12-.02-.02-.03-.04-.05-.07Zm.8,1.02s.02,0,.02,0c0,0,0,.01-.01.02,0,0,0,0-.01-.01Zm.83.98s.04-.02.05-.02c-.01.01-.02.03-.03.05,0,0-.01-.02-.02-.02Zm1.11,2.12c0-.11.09-.19.19-.19s.19.09.19.19-.09.19-.19.19-.19-.09-.19-.19Zm.9,1.1c0-.11.09-.19.19-.19s.19.09.19.19-.09.19-.19.19-.19-.09-.19-.19Zm-2.04,4.5c0,.11-.09.19-.19.19s-.19-.09-.19-.19.09-.19.19-.19.19.09.19.19Zm-1.08-.47c0,.08-.06.14-.14.14s-.14-.06-.14-.14.06-.14.14-.14.14.06.14.14Zm-2.24,0c0,.08-.06.14-.14.14s-.14-.06-.14-.14.06-.14.14-.14.14.06.14.14Zm-.98.47c0,.11-.09.19-.19.19s-.19-.09-.19-.19.09-.19.19-.19.19.09.19.19Zm-2.81-4.5c0-.11.09-.19.19-.19s.19.09.19.19-.09.19-.19.19-.19-.09-.19-.19Zm.9-1.1c0-.11.09-.19.19-.19s.19.09.19.19-.09.19-.19.19-.19-.09-.19-.19Zm1.84-2.06c0-.11.09-.19.19-.19s.19.09.19.19-.09.19-.19.19-.19-.09-.19-.19Zm.87-1.02c0-.11.09-.19.19-.19s.19.09.19.19-.09.19-.19.19-.19-.09-.19-.19Zm1.16-1.85h0s0,0,0,0h0Zm0,0h0s0,0,0,0h0Zm0,.48s.01,0,.02,0c.11,0,.19.09.19.19s-.09.19-.19.19c0,0-.01,0-.02,0,0,0-.01,0-.02,0-.11,0-.19-.09-.19-.19s.09-.19.19-.19c0,0,.01,0,.02,0Zm.77,1.38c0-.11.09-.19.19-.19s.19.09.19.19-.09.19-.19.19-.19-.09-.19-.19Zm.87,1.02c0-.11.09-.19.19-.19s.19.09.19.19-.09.19-.19.19-.19-.09-.19-.19Zm1.56,6.5s-.06-.05-.1-.07c0,0,0,0-.01-.01-.1-.07-.24-.09-.35-.04-.12.05-.16.2-.1.32.03.05.08.12.15.13.02,0,.04,0,.06,0,0,0,.06-.03.02-.01.02,0,.02-.02.02-.04,0,0,0,0,0-.01,0,0,0-.02,0-.02,0,0,0,0,0,0,0-.06-.04-.1.02-.15.03-.02.05-.03.08-.04.14.1.25.3.04.43-.1.06-.19.08-.3.11-.21.05-.42.06-.6-.09-.25-.2-.21-.63.03-.82.11-.09.23-.12.36-.15.17,0,.35-.09.5-.17.73-.39.59-1.41.09-1.92-.02-.02-.05-.05-.07-.07.02,0,.04,0,.06,0,.23.02.52-.03.65-.25.25-.41-.06-.99-.56-.98-.25,0-.64.24-.61.49-.03.18.15.37.33.39.25.02.49-.23.29-.46-.08-.09-.24-.14-.31-.01-.04.08,0,.17.06.21-.01,0-.03,0-.04.01-.07,0-.16-.01-.21-.07-.04-.05-.02-.09-.02-.15,0,0,0-.01,0-.02.02-.04.05-.08.11-.11.09-.03.18-.06.27-.05.2,0,.47.08.52.3.06.25-.06.47-.32.56-.12.04-.24.06-.36.03-.47-.35-1.16-.47-1.67-.15-.06,0-.12.02-.17.04.13-.1.28-.2.43-.3.29-.19.7-.43.83-.76.18-.47.13-1.12-.43-1.28-.23-.06-.48.14-.56.37-.09-.22-.27-.42-.5-.5.16-.06.3-.15.39-.31.25-.47-.13-.73-.3-1.13,0,0,0,0,0,0,.09.35.41.82-.05,1.1-.1.06-.21.1-.32.15.04-.03.09-.07.11-.1.14-.19.18-.39.17-.62,0-.48-.5-.76-.69-1.18-.06-.09-.11-.2-.15-.3-.03.16-.1.3-.18.42-.22.35-.61.62-.62,1.05,0,.23.03.43.17.62.03.04.07.07.11.1-.11-.04-.22-.09-.32-.15-.46-.28-.14-.75-.05-1.1,0,0,0,0,0,0-.17.4-.54.66-.3,1.13.09.16.23.25.39.31-.24.08-.41.28-.5.5-.08-.23-.32-.43-.56-.37-.56.15-.61.81-.43,1.28.13.34.54.57.83.76.15.1.29.2.43.3-.06-.02-.11-.03-.17-.04-.51-.32-1.2-.2-1.67.15-.12.03-.25.01-.36-.03-.25-.09-.37-.31-.32-.56.05-.22.32-.29.52-.3.09,0,.19.02.27.05.05.03.09.07.11.11,0,0,0,.01,0,.02,0,.06.02.1-.02.15-.04.06-.14.08-.21.07-.02,0-.03,0-.04-.01.07-.04.1-.13.06-.21-.07-.13-.23-.08-.31.01-.2.23.04.47.29.46.18-.01.36-.21.33-.39.03-.25-.35-.49-.61-.49-.5,0-.81.57-.56.98.13.21.42.27.65.25.02,0,.04,0,.06,0-.03.02-.05.05-.07.07-.5.51-.64,1.54.09,1.92.14.08.32.16.5.17.13.03.25.06.36.15.24.19.28.62.03.82-.18.15-.39.13-.6.09-.11-.03-.2-.05-.3-.11-.21-.13-.1-.33.04-.43.02,0,.05.02.08.04.06.05.02.1.02.15,0,0,0,0,0,0,0,0-.01.01,0,.02,0,0,0,0,0,.01,0,.02,0,.03.02.04-.04-.01.02.01.02.01.02,0,.04,0,.06,0,.06-.01.12-.08.14-.13.05-.11.01-.26-.1-.32-.11-.05-.26-.02-.35.04,0,0,0,0-.01.01-.04.02-.07.04-.1.07-.09.11-.12.36-.05.49.04.08.09.14.16.18-.63-.08-1.17-.4-1.43-1-.63-1.43.16-2.72,1.86-4.5,1.96-2.06,2.64-3.19,2.67-3.23h0s0,0,0,0h0s.71,1.17,2.67,3.23c1.7,1.78,2.48,3.07,1.86,4.5-.26.6-.8.91-1.43,1,.06-.05.12-.1.16-.18.07-.13.04-.38-.05-.49Zm-1.41.23c.02.12.07.21.12.29-.26-.13-.5-.32-.72-.48-.42-.32-.79-.8-.9-1.34-.12-.57.32-1.35.97-1.34.45,0,1.13.22.91.87-.11.24-.29.37-.54.38-.21.04-.28-.08-.2-.36,0,0,.02,0,.02,0-.06-.18-.36-.39-.49-.12-.17.34.08.64.42.74.24.07.48.02.66-.09-.11.25-.05.5.17.67.02.02.04.03.07.04-.32.09-.57.39-.49.74Zm-.38-4.64c.2.2.45,0,.3-.28,0,0,0,0,0,0-.25-.69.58-.48.53.08-.02.29-.1.44-.22.71-.16.33-.43.55-.73.75-.24.15-.44.31-.61.49-.19.13-.35.32-.46.53.07-.23.18-.46.34-.66.28-.36.71-.75.81-1.21.03-.14.04-.27.03-.39Zm1.19,3.42s.04.01.06.02c.04.01.1-.01.12-.05.22-.33-.19-.56-.5-.44.07-.1.13-.22.15-.35.08-.44-.24-.82-.61-.98-.17-.07-.33-.11-.49-.1.66-.24,1.58.12,1.88.73.18.37.24,1.06-.15,1.33-.18.13-.59.26-.77.01-.21-.41-.12-.55.28-.44-.18,0-.08.24.03.27Zm-2.09-5.39c0,.35-.14.66-.39.98-.07.09-.11.18-.13.27-.02-.09-.07-.19-.13-.27-.24-.32-.39-.63-.39-.98.01-.04.03-.09.04-.13.14-.33.42-.54.47-.86.05.31.33.53.47.86.02.04.03.09.04.13Zm-2.8,5.86s.04-.03.07-.04c.22-.18.29-.43.17-.67.18.12.42.16.66.09.33-.09.58-.4.42-.74-.13-.27-.43-.06-.49.12,0,.01.01.01.02,0,.07.29,0,.41-.2.36-.25-.01-.43-.14-.54-.38-.22-.65.46-.86.91-.87.65-.01,1.09.76.97,1.34-.11.53-.48,1.01-.9,1.34-.21.16-.46.35-.72.48.06-.08.1-.18.12-.29.08-.36-.17-.66-.49-.74Zm-.15-1.29c.02.13.08.25.15.35-.31-.12-.72.11-.5.44.02.04.08.06.12.05.02,0,.04-.01.06-.02.11-.03.21-.28.03-.27.4-.11.5.04.28.44-.18.25-.59.11-.77-.01-.39-.28-.33-.97-.15-1.33.3-.61,1.22-.97,1.88-.73-.16,0-.33.03-.49.1-.37.17-.69.55-.61.98Zm1.75-.86c-.17-.18-.37-.33-.61-.49-.3-.2-.57-.41-.73-.75-.12-.26-.2-.41-.22-.71-.05-.56.79-.78.53-.08,0,0,0,0,0,0-.15.28.1.48.3.28,0,.12,0,.26.03.39.09.47.52.86.81,1.21.16.2.28.43.34.66-.11-.21-.27-.4-.46-.53Zm.69-5.6h0s0,0,0,0h0Zm0,0h0s0,0,0,0h0Zm-2.79,3.03c-.11,0-.19-.09-.19-.19s.09-.19.19-.19.19.09.19.19-.09.19-.19.19Zm-1.74,6.06c.13,0,.24.11.24.24s-.11.24-.24.24-.24-.11-.24-.24.11-.24.24-.24Zm3.1-.43c.07-.05.14-.09.2-.13.52-.35.91-.8,1.1-1.4.04-.12.05-.25.05-.38.04-.33,0-.67-.15-.95-.21-.37-.5-.67-.7-1.04-.11-.19-.17-.4-.23-.61-.03-.11-.04-.22-.05-.33,0-.09,0-.18.01-.26.13-.44.82-.56.8-.06-.21,0-.51.29-.18.51.26.17.48.03.58-.21.1.23.32.38.58.21.33-.22.03-.51-.18-.51-.02-.5.67-.38.8.06,0,.09,0,.18.01.26,0,.11-.02.22-.05.33-.06.21-.12.42-.23.61-.2.37-.49.67-.7,1.04-.16.28-.2.62-.15.95,0,.13.01.25.05.38.19.61.58,1.05,1.1,1.4.06.04.13.09.2.13-.56-.25-1.08-.65-1.42-1.18-.35.53-.86.93-1.43,1.18Zm5.97.43c.13,0,.24.11.24.24s-.11.24-.24.24-.24-.11-.24-.24.11-.24.24-.24Zm-1.74-6.06c-.11,0-.19-.09-.19-.19s.09-.19.19-.19.19.09.19.19-.09.19-.19.19Zm-2.78-4.37s-.02-.03-.02-.03h0s0,0,0,0h0s0,0,0,0h0s0,0,0,0h0s0,0,0,0h0s0,0,0,0h0s-.01.02-.02.04c-.07-.09-.15-.15-.25-.2.09-.06.21-.09.31-.06.06.02.1.06.15.1-.06.04-.12.09-.17.15Zm-5.04,9.78c0,.14-.12.26-.26.26s-.26-.12-.26-.26.12-.26.26-.26.26.12.26.26Zm-.2-2.25c-.11,0-.19-.09-.19-.19s.09-.19.19-.19.19.09.19.19-.09.19-.19.19Zm-.28.74c.13,0,.24.11.24.24s-.11.24-.24.24-.24-.11-.24-.24.11-.24.24-.24Zm1.88,2.73c0-.11.09-.19.19-.19s.19.09.19.19-.09.19-.19.19-.19-.09-.19-.19Zm3.12-1.31c0-.05.04-.1.1-.1s.1.04.1.1-.04.1-.1.1-.1-.04-.1-.1Zm3.74,1.31c0-.11.09-.19.19-.19s.19.09.19.19-.09.19-.19.19-.19-.09-.19-.19Zm2.04-1.48c.14,0,.26.12.26.26s-.12.26-.26.26-.26-.12-.26-.26.12-.26.26-.26Zm-.25-2.19c0-.11.09-.19.19-.19s.19.09.19.19-.09.19-.19.19-.19-.09-.19-.19Zm.47,1.42c-.13,0-.24-.11-.24-.24s.11-.24.24-.24.24.11.24.24-.11.24-.24.24Zm-1.38-3.79s0,0,0,0c0,0,0,0,0,0,0,0,0,0,0,0Zm.83,1.01s0,0,.01,0c0,0,0,0-.01.01,0,0,0,0,0,0Zm.72,1.09s.01,0,.02,0c0,0-.01,0-.02.01,0,0,0,0,0,0Zm-.3-1.01c.28.08.43.37.35.65-.03.09-.07.16-.13.22-.03-.06-.07-.11-.1-.17,0,0,0,0,0,0,.07-.22-.06-.45-.28-.51-.03,0-.06-.01-.08-.01-.03-.05-.07-.09-.1-.14.11-.05.23-.06.35-.02Zm-.9-1.04c.29,0,.52.23.52.52,0,.13-.05.24-.12.33-.03-.04-.07-.09-.1-.13,0-.03.01-.06.01-.09,0-.23-.18-.41-.41-.41,0,0-.01,0-.02,0-.04-.05-.08-.1-.13-.15.07-.04.16-.07.25-.07Zm-.83-1.01c.29,0,.52.23.52.52,0,.13-.05.25-.13.34-.03-.04-.07-.08-.1-.12.01-.04.02-.08.02-.12,0-.23-.19-.41-.41-.41-.03,0-.06,0-.08,0-.04-.04-.08-.08-.11-.12.08-.06.19-.1.3-.1Zm-.84-.97c.29,0,.52.23.52.52,0,.14-.06.27-.15.37-.03-.03-.06-.07-.09-.1.02-.05.03-.1.03-.16,0-.23-.19-.41-.41-.41-.04,0-.08,0-.12.02-.03-.04-.07-.08-.1-.11.09-.07.2-.12.32-.12Zm-.83-.99c.29,0,.52.23.52.52,0,.16-.07.3-.18.39-.03-.03-.05-.06-.08-.09.03-.06.05-.12.05-.19,0-.23-.19-.41-.41-.41-.05,0-.09,0-.13.02-.03-.04-.06-.08-.09-.11.09-.08.21-.12.33-.12Zm-.74-1.01c.29,0,.52.23.52.52,0,.19-.1.35-.25.44-.02-.02-.04-.05-.06-.07.06-.07.1-.16.1-.26,0-.23-.19-.41-.41-.41-.07,0-.13.02-.18.04-.03-.03-.05-.07-.08-.1.09-.09.22-.15.37-.15Zm-.31-.49c0,.18-.09.33-.22.42-.02-.03-.04-.06-.06-.09.04-.07.07-.14.07-.23,0-.23-.19-.41-.41-.41-.03,0-.07,0-.1.01-.03-.05-.06-.09-.09-.13.08-.06.18-.09.29-.09.29,0,.52.23.52.52Zm-.91-1.17c.26,0,.44.16.56.36,0,0-.02,0-.03,0-.06,0-.11,0-.16.02-.08-.12-.28-.21-.41-.2-.12,0-.26.09-.32.21-.06-.02-.13-.03-.2-.03-.01,0-.02,0-.03,0,.11-.22.32-.36.58-.37Zm-.41.65c.11,0,.22.04.3.1-.02.04-.05.08-.08.13-.04,0-.07-.02-.11-.02-.23,0-.41.19-.41.41,0,.09.03.17.08.24-.02.03-.04.06-.06.08-.14-.09-.23-.25-.23-.43,0-.29.23-.52.52-.52Zm-.83,1.01c.15,0,.28.06.37.16-.02.03-.05.07-.08.1-.06-.03-.12-.05-.19-.05-.23,0-.41.19-.41.41,0,.1.04.2.1.27-.02.02-.04.05-.06.07-.16-.09-.26-.25-.26-.45,0-.29.23-.52.52-.52Zm-.74,1.01c.13,0,.25.05.34.13-.03.04-.06.07-.09.11-.04-.02-.09-.03-.14-.03-.23,0-.41.19-.41.41,0,.07.02.14.06.2-.03.03-.05.06-.08.09-.12-.09-.19-.24-.19-.4,0-.29.23-.52.52-.52Zm-.83.99c.13,0,.24.05.33.12-.03.04-.06.07-.1.11-.04-.01-.08-.02-.13-.02-.23,0-.41.19-.41.41,0,.06.01.12.04.17-.03.03-.06.07-.09.1-.1-.09-.16-.23-.16-.37,0-.29.23-.52.52-.52Zm-.84.97c.12,0,.22.04.31.11-.04.04-.07.08-.11.12-.03,0-.06-.01-.09-.01-.23,0-.41.19-.41.41,0,.04,0,.09.02.13-.03.04-.07.07-.1.11-.08-.09-.13-.21-.13-.34,0-.29.23-.52.52-.52Zm-.83,1.01c.09,0,.18.03.26.07-.04.05-.08.1-.12.14,0,0-.02,0-.03,0-.23,0-.41.19-.41.41,0,.04,0,.07.02.1-.03.04-.07.09-.1.13-.08-.09-.13-.21-.13-.34,0-.29.23-.52.52-.52Zm-.9,1.04c.12-.04.25-.02.36.03-.03.04-.07.09-.1.13-.03,0-.06,0-.1.01-.22.07-.34.3-.28.51,0,0,0,.01,0,.02-.03.06-.07.11-.1.17-.06-.06-.12-.13-.14-.22-.08-.28.07-.56.35-.65Zm-.97,1.82c-.08-.28.08-.57.35-.65.09-.03.17-.03.25,0-.03.06-.06.12-.09.18,0,0,0,0,0,0-.22.07-.34.3-.28.51,0,.03.02.06.04.09-.02.05-.03.11-.05.16-.1-.06-.19-.16-.23-.29Zm.12.88c-.12.1-.18.27-.13.43.02.08.07.15.13.2,0,.04,0,.08.01.12-.18-.04-.33-.17-.38-.35-.08-.28.08-.56.35-.65.02,0,.04,0,.05-.01-.02.09-.03.18-.04.27Zm.06,1.89c-.25-.14-.34-.45-.2-.71.05-.09.12-.16.2-.2.01.06.03.13.05.19,0,0,0,.01-.01.02-.11.2-.04.45.16.56.03.02.06.03.09.04.03.05.06.1.09.15-.12.03-.26.02-.38-.05Zm1.05.98c-.29.03-.54-.18-.57-.47,0-.09,0-.18.04-.26.05.06.11.13.17.18.04.2.23.34.43.32.07.04.13.07.2.1-.08.06-.17.11-.28.12Zm1.33.43c-.26.13-.57.03-.7-.23-.03-.07-.05-.14-.05-.21.07.02.14.04.22.06.11.18.34.25.53.15.04-.02.07-.05.1-.08.05,0,.1,0,.16,0-.04.13-.13.25-.26.32Zm1.35-.08c-.18.22-.51.26-.73.08-.11-.09-.17-.2-.19-.33.05,0,.09,0,.14-.01.02.04.05.08.09.11.18.14.44.11.58-.06.05-.06.07-.13.08-.2.04-.01.07-.02.11-.04.04.15.01.32-.09.45Zm1.17-.62c-.1.27-.4.4-.67.3-.1-.04-.18-.11-.24-.19.06-.02.12-.04.17-.07.01,0,.03.02.04.02.21.08.45-.03.53-.24.01-.03.02-.06.02-.08.05-.03.1-.06.14-.09.04.11.04.23,0,.35Zm.74-.7c-.11.16-.3.22-.48.18.18-.14.36-.29.52-.45.01,0,.03,0,.04.01,0,.09-.02.18-.07.26Zm.43-.69c-.04.09-.11.15-.19.18.07-.08.13-.17.19-.25,0,.02,0,.05,0,.07Zm.18,0s0-.06,0-.09c.07.1.14.19.21.28-.09-.03-.17-.1-.21-.19Zm.43.69c-.06-.08-.08-.17-.07-.26.02,0,.03,0,.05-.01.16.16.33.32.52.45-.18.05-.38-.01-.49-.17Zm1.41,1c-.27.1-.57-.03-.67-.3-.05-.12-.04-.24,0-.36.05.03.09.06.14.09,0,.03.01.06.02.09.08.21.32.32.53.24.02,0,.03-.02.05-.03.06.02.11.05.17.07-.06.09-.14.16-.24.2Zm1.23.4c-.22.18-.55.14-.73-.08-.11-.13-.13-.3-.09-.46.04.01.07.02.11.03,0,.07.03.14.08.2.14.18.4.21.58.06.04-.03.07-.07.09-.11.05,0,.09,0,.14.01-.02.13-.08.24-.19.33Zm1.32-.23c-.13.26-.44.36-.7.23-.13-.07-.22-.18-.26-.32.05,0,.11,0,.16,0,.03.03.06.06.1.08.19.1.42.03.53-.15.07-.02.15-.03.22-.06,0,.07-.02.14-.05.21Zm1.2-.67c-.03.29-.28.5-.57.47-.11-.01-.2-.05-.28-.11.07-.03.14-.07.21-.11.2,0,.37-.12.42-.31.06-.06.12-.12.18-.19.03.08.05.16.04.25Zm.68-1.21c.14.25.05.57-.2.71-.12.06-.24.08-.36.05.03-.05.06-.1.09-.15.03,0,.05-.02.08-.03.2-.11.27-.36.16-.56,0,0,0,0,0,0,.02-.07.04-.13.05-.2.08.04.15.11.19.19Zm.22-.79c-.05.18-.2.31-.37.35,0-.04.01-.08.01-.12.05-.05.1-.11.12-.19.05-.16,0-.32-.12-.42,0-.09-.02-.18-.04-.28.01,0,.03,0,.04,0,.28.08.43.37.35.65Z"/>
                <polygon points="13.85 12.2 13.85 12.2 13.85 12.2 13.85 12.2"/>
                <polygon points="13.85 12.2 13.85 12.2 13.85 12.2 13.85 12.2"/>
                <path d="m9.64,18.09s0,0,0,0c-.11.28-.18.44-.09.74.09.27.3.59.61.58.06,0,.1-.06.07-.11-.1-.21-.28-.36-.4-.55-.1-.16-.2-.47-.19-.66Z"/>
                <path d="m9.95,19.49c-.19.04-.37.17-.46.35-.09.18.17.26.24.09.06-.15.28-.19.42-.25.11-.04.25-.06.34-.11,0,0,0,0,0,0-.08.01-.19-.04-.27-.06-.09-.02-.18-.02-.27,0Z"/>
                <path d="m12.43,19.63c-.09-.05-.2-.02-.3.01-.05.01-.09.04-.13.07-.04.03-.06.08-.11.12,0,0,0,.02,0,.02.05.02.1,0,.15.01.08.02.16.03.24.05.16.05.3-.2.14-.28Z"/>
                <path d="m11.98,19.6s.02,0,.03-.01c.02,0-.02.01.02,0,.04-.02.07-.06.09-.09.02-.04.01-.1-.04-.12-.05-.02-.1.02-.12.06-.01.03-.02.05-.02.08,0,.01,0,.01,0,0h0s-.02.07-.03.07c-.01,0-.02.01-.01.02.02.02.06,0,.08,0Z"/>
                <path d="m12.74,19.64c.05,0,.09-.06.11-.11,0-.04,0-.1-.05-.12-.05-.01-.09,0-.13.01-.02,0-.05.02-.06.04,0,.01-.02.03-.03.04,0,0-.01.02,0,.03.06.05.08.11.18.1Z"/>
                <path d="m9.56,19.44s.07-.07.04-.11c-.06-.09-.16-.15-.22-.24-.07-.11-.11-.23-.14-.36,0,0,0,0-.01,0-.08.15-.11.31-.05.48.06.16.2.3.38.23Z"/>
                <path d="m10.09,18.81s.1-.02.09-.07c-.01-.08-.04-.14-.08-.21-.02-.05-.05-.09-.05-.14,0-.04.01-.1.01-.14,0,0,0,0,0,0-.05.1-.1.17-.11.29-.01.11.05.22.14.28Z"/>
                <path d="m17.54,19.41c.31.01.52-.31.61-.58.1-.3.02-.46-.09-.74,0,0,0,0,0,0,0,.19-.09.49-.19.66-.12.2-.3.34-.4.55-.02.05.01.11.07.11Z"/>
                <path d="m17.56,19.68c.14.06.35.1.42.25.07.17.33.09.24-.09-.09-.18-.26-.31-.46-.35-.09-.02-.18-.02-.27,0-.08.02-.19.07-.27.06,0,0,0,0,0,0,.1.06.24.07.34.11Z"/>
                <path d="m15.69,19.71s-.08-.06-.13-.07c-.1-.03-.2-.06-.3-.01-.16.09-.02.33.14.28.08-.02.16-.03.24-.05.05-.01.1,0,.15-.01,0,0,0-.01,0-.02-.04-.03-.06-.08-.11-.12Z"/>
                <path d="m15.79,19.58s-.02-.06-.03-.07h0s0,0,0,0c0-.03,0-.05-.02-.08-.02-.04-.08-.08-.12-.06-.05.02-.06.08-.04.12.02.04.05.08.09.09.04.02,0,0,.02,0,0,0,.02,0,.03.01.02,0,.06.03.08,0,0-.01,0-.02-.01-.02Z"/>
                <path d="m15.1,19.48s-.04-.03-.06-.04c-.05-.02-.08-.03-.13-.01-.05.01-.06.07-.05.12.01.05.05.1.11.11.09.02.12-.05.18-.1,0,0,0-.02,0-.03-.01-.01-.02-.03-.03-.04Z"/>
                <path d="m18.1,19.33s0,.1.04.11c.18.07.32-.07.38-.23.06-.16.03-.33-.05-.48,0,0-.01,0-.01,0-.03.12-.06.25-.14.36-.06.09-.16.14-.22.24Z"/>
                <path d="m17.61,18.81c.09-.06.15-.17.14-.28-.01-.11-.06-.19-.11-.29,0,0,0,0,0,0,0,.04.02.1.02.14,0,.05-.03.09-.05.14-.03.07-.06.13-.08.21,0,.05.04.1.09.07Z"/>
                <path d="m13.54,14.09c.04.34.3.65.3.65,0,0,.26-.32.3-.65.04-.34-.3-.76-.3-.76,0,0-.34.43-.3.76Z"/>
                <path d="m13.84,16.01s-.48.59-.42,1.06c.06.47.42.91.42.91,0,0,.36-.45.42-.91.06-.47-.42-1.06-.42-1.06Z"/>
                <path d="m14.79,16.59c.08-.24-.1-.61-.1-.61,0,0-.32.26-.34.51-.02.25.12.53.12.53,0,0,.24-.19.33-.43Z"/>
                <path d="m13.01,15.98s-.18.37-.1.61c.08.24.33.43.33.43,0,0,.14-.28.12-.53-.02-.25-.34-.51-.34-.51Z"/>
              </g>
              <path d="m17.17,23.32h0c-1.4,0-2.6-.63-3.29-1.73-.01-.02-.05-.02-.07,0-.69,1.1-1.89,1.73-3.29,1.73-1.63,0-3.09-.88-3.64-2.19-.98-2.33.31-4.4,2.87-7.2,2.47-2.7,3.63-4.41,4.01-5.02l.08-.13.08.13c.39.61,1.55,2.32,4.01,5.02,2.56,2.79,3.84,4.87,2.87,7.2-.55,1.31-2.01,2.19-3.64,2.19Zm-3.32-1.95c.08,0,.16.04.2.11.66,1.04,1.79,1.64,3.12,1.64v.1s0-.1,0-.1c1.55,0,2.94-.83,3.46-2.07.94-2.23-.33-4.25-2.83-6.99-2.32-2.54-3.49-4.21-3.95-4.92-.46.71-1.63,2.38-3.95,4.92-2.5,2.73-3.77,4.76-2.83,6.99.52,1.24,1.91,2.07,3.46,2.07,1.33,0,2.47-.6,3.12-1.64.04-.07.12-.11.2-.11Z"/>
            </g>
            <path d="m18.38,13.62c-2.99-3.29-4.18-5.21-4.39-5.57,0,0,0,0,0,0-.01-.03-.04-.05-.07-.07-.02,0-.03-.01-.05-.01,0,0,0,0,0,0,0,0,0,0-.01,0,0,0,0,0,0,0,0,0,0,0,0,0-.01,0-.02,0-.04,0,0,0,0,0,0,0,0,0-.02,0-.02,0,0,0,0,0-.01,0,0,0,0,0,0,0-.02.02-.04.03-.05.06,0,0,0,0,0,0h0c-.21.35-1.4,2.27-4.39,5.58-2.79,3.07-4.19,5.36-3.1,7.96.62,1.49,2.26,2.48,4.08,2.48,1.13,0,2.15-.38,2.92-1.06,0,0,.01,0,.02,0,0,0,0,0,0,0-.65,4.81-2.8,8.1-2.8,8.1h6.84s-2.16-3.29-2.81-8.11c0,0,0,0,.01,0,.77.68,1.79,1.06,2.93,1.06h0c1.82,0,3.46-1,4.08-2.48,1.09-2.61-.32-4.89-3.1-7.96Zm-4.87,15.12c.13.21.21.44.22.69,0,0,0,0,0,0-.08-.55-.75-.67-.85-1.19-.06-.33.02-.61.24-.86.01-.02.03,0,.02.02-.39.6.12.91.38,1.34Zm.17-2.1c-.22.63-.28,1.13-.03,1.76,0,.02-.02.04-.04.02-.3-.36-.52-.81-.37-1.29.21-.68.54-1.23.59-1.95h0s0,0,0,0c0,0,0,0,0,0,0,0,0,0,0,0,0,0,0,0,0,0,0,0,0,0,0,0h0c.05.72.38,1.28.59,1.95.14.48-.07.93-.37,1.29-.02.02-.05,0-.04-.02.25-.63.19-1.13-.03-1.76-.08-.24-.13-.46-.15-.69-.02.23-.07.45-.15.69Zm.82.75s0-.04.02-.02c.22.26.3.53.24.86-.1.52-.77.64-.85,1.19,0,0,0,0,0,0,0-.25.09-.48.22-.69.26-.44.76-.75.38-1.34Zm.5.16c.34.59.74,1.07.73,1.78,0,.53-.27.96-.73,1.19-.84.43-1.65-1.01-.71-1.38.06-.02.12-.02.19,0,.14,0,.27.07.41.07.2,0,.35-.13.37-.32.02-.14-.05-.26-.2-.3-.06-.01-.12,0-.17.04-.03.05-.03.09-.01.13.02-.02.04,0,.05.01,0,0,0,0,0,0,0,.01,0,.03,0,.04-.11.12-.31-.13-.21-.25.14-.18.41-.12.53.05.13.18,0,.45-.14.57-.06.05-.13.08-.21.09.1.06.18.16.23.26.15.26-.03.55-.29.62-.01,0-.02-.01,0-.02.2-.1.15-.41.03-.56-.03-.03-.06-.06-.09-.09,0,.28-.34.53-.44.28-.03-.07.05-.11.09-.05.21-.1-.09-.77-.4-.33-.32.46.18.84.52.94.69.21,1.03-.49,1.05-1.04.02-.73-.62-1.49-.92-2.14-.41-.88-.72-1.86-.86-2.85-.14.99-.45,1.97-.86,2.85-.3.64-.94,1.4-.92,2.14.02.56.36,1.26,1.05,1.04.35-.11.84-.49.52-.94-.31-.44-.61.22-.4.33.05-.05.12-.01.09.05-.1.25-.44,0-.44-.28-.03.03-.07.05-.09.09-.12.14-.17.45.03.56.01,0,0,.02,0,.02-.27-.07-.44-.36-.29-.62.06-.1.14-.2.23-.26-.08-.01-.15-.04-.21-.09-.15-.12-.27-.39-.14-.57.12-.17.39-.23.53-.05.1.12-.1.37-.21.25-.01-.01-.01-.03,0-.04,0,0,0,0,0,0,.01-.02.04-.03.05-.01.02-.04.01-.09-.01-.13-.05-.04-.1-.06-.17-.04-.14.04-.21.16-.2.3.03.19.18.32.37.32.14,0,.28-.06.41-.07.06-.02.13-.03.19,0,.94.38.13,1.82-.71,1.38-.46-.24-.72-.67-.73-1.19,0-.71.39-1.19.73-1.78.59-1.03.94-2.19,1.14-3.37,0-.02,0-.03.01-.05,0,0,0,0,0,0,0-.03.02-.06.02-.09.02.08.04.17.06.25.2,1.14.55,2.26,1.12,3.26Zm6.06-6.32c-.56,1.32-2.06,2.21-3.72,2.21h0c-1.43,0-2.65-.64-3.36-1.75-.03-.04-.07-.07-.12-.07s-.1.03-.12.07c-.71,1.11-1.93,1.75-3.36,1.75-1.67,0-3.16-.89-3.73-2.21-1.01-2.37.33-4.49,2.99-7.36,2.6-2.82,3.83-4.6,4.22-5.22.39.62,1.62,2.41,4.22,5.22,2.65,2.87,3.99,4.99,2.99,7.36Z"/>
          </g>
        </g>
      </g>
    </g>
  </g>
</svg>