<?xml version="1.0" encoding="UTF-8"?>
<svg id="Layer_2" data-name="Layer 2" xmlns="http://www.w3.org/2000/svg" viewBox="0 0 29.67 40.7">
  <defs>
    <style>
      .cls-1 {
        fill: #fff;
      }

      .cls-2 {
        fill: #ff2601;
      }
    </style>
  </defs>
  <g id="Layer_1-2" data-name="Layer 1">
    <g>
      <path class="cls-1" d="m27.58,0s-.02,0-.03,0h-.06s0,0-.01,0H2.12s-.02,0-.03,0C1.25.02,0,.71,0,2.49v1.31s0,.03,0,.04v33.28s0,.03,0,.05v1.04c0,1.79,1.25,2.47,2.09,2.49,0,0,.02,0,.03,0h25.43s.02,0,.03,0c.16,0,.99-.06,1.58-.83.34-.44.51-1,.51-1.67V2.49C29.67.71,28.42.02,27.58,0Z"/>
      <g>
        <g>
          <path class="cls-2" d="m4.05,8.54c-.58.42-.86.86-.87.87h0s0,0,0,0h0s0,0,0,0c0-.01-.29-.45-.87-.87-.58-.43-.72-.96-.51-1.36.21-.4,1.04-.6,1.37.2.33-.8,1.17-.6,1.37-.2.21.4.08.94-.51,1.36Z"/>
          <path class="cls-2" d="m3.73,4.35v.03c.19.07.33.18.42.31.09.14.14.3.14.5s-.05.36-.14.5c-.09.14-.22.26-.4.34-.17.08-.37.12-.61.12-.22,0-.41-.04-.57-.11-.16-.07-.29-.18-.38-.32-.09-.14-.14-.3-.14-.49,0-.14.02-.26.07-.37.05-.1.11-.19.19-.26.08-.07.18-.13.3-.18v-.03c-.35-.15-.53-.41-.53-.78,0-.17.05-.32.14-.45.09-.13.22-.23.39-.31.17-.07.36-.11.56-.11.23,0,.43.03.59.1.16.07.28.16.36.29.08.12.12.27.12.45s-.04.33-.13.46c-.09.13-.22.23-.41.32Zm-1.19.84c0,.11.01.2.04.3.02.09.06.17.12.24.05.07.12.12.2.16.08.04.18.06.3.06.13,0,.25-.03.34-.08.1-.05.17-.14.22-.24.05-.11.07-.23.07-.38,0-.16-.03-.29-.08-.4-.05-.11-.13-.2-.23-.26-.1-.06-.21-.09-.34-.09-.12,0-.22.02-.3.06-.08.04-.15.09-.2.15-.05.06-.09.14-.11.22-.02.09-.03.18-.03.27Zm.03-1.6c0,.1.01.19.03.27.02.08.06.16.11.22.05.06.12.11.2.15.08.04.18.05.3.05.13,0,.25-.03.34-.08.09-.05.16-.13.2-.23.04-.1.07-.22.07-.35,0-.15-.03-.27-.08-.37-.05-.1-.13-.18-.22-.23-.09-.05-.2-.07-.32-.07-.2,0-.36.06-.47.17s-.16.27-.16.47Z"/>
        </g>
        <g>
          <path class="cls-2" d="m25.62,32.16c.58-.42.86-.86.87-.87h0s0,0,0,0h0s0,0,0,0c0,.01.29.45.87.87.58.43.72.96.51,1.36-.21.4-1.04.6-1.37-.2-.33.8-1.17.6-1.37.2-.21-.4-.08-.94.51-1.36Z"/>
          <path class="cls-2" d="m25.94,36.35v-.03c-.19-.07-.33-.18-.42-.31s-.14-.3-.14-.5.05-.36.14-.5c.09-.14.22-.26.4-.34.17-.08.37-.12.61-.12.22,0,.41.04.57.11.16.07.29.18.38.32.09.14.14.3.14.49,0,.14-.02.26-.07.37-.05.1-.11.19-.19.26-.08.07-.18.13-.3.18v.03c.35.15.53.41.53.78,0,.17-.05.32-.14.45-.09.13-.22.23-.39.31-.17.07-.36.11-.56.11-.23,0-.43-.03-.59-.1-.16-.07-.28-.16-.36-.28-.08-.12-.12-.27-.12-.45s.04-.33.13-.46c.09-.13.22-.23.41-.32Zm1.19-.84c0-.11-.01-.2-.04-.3-.02-.09-.06-.17-.12-.24-.05-.07-.12-.12-.2-.16-.08-.04-.18-.06-.3-.06-.13,0-.25.03-.34.08-.1.05-.17.14-.22.24-.05.11-.07.23-.07.38,0,.16.03.29.08.4.05.11.13.2.23.26.1.06.21.09.34.09.12,0,.22-.02.3-.06.08-.04.15-.09.2-.15.05-.06.09-.14.11-.22.02-.09.03-.18.03-.27Zm-.03,1.6c0-.1-.01-.19-.03-.27-.02-.08-.06-.16-.11-.22-.05-.06-.12-.11-.2-.15-.08-.04-.18-.05-.3-.05-.13,0-.25.03-.34.08-.09.05-.16.13-.2.23-.04.1-.07.22-.07.35,0,.15.03.27.08.37.05.1.13.18.22.23.09.05.2.07.32.07.2,0,.36-.06.47-.17.11-.11.16-.27.16-.47Z"/>
        </g>
        <g>
          <path class="cls-2" d="m11.5,10.2c-1.14.84-1.71,1.71-1.72,1.74h0s0,0,0,0h0s0,0,0,0c-.01-.02-.58-.9-1.72-1.74-1.16-.85-1.42-1.91-1.01-2.71s2.07-1.19,2.73.4c.66-1.59,2.31-1.2,2.73-.4s.15,1.86-1.01,2.71Z"/>
          <path class="cls-2" d="m8.06,30.49c1.14-.84,1.71-1.71,1.72-1.74h0s0,0,0,0h0s0,0,0,0c.01.02.58.9,1.72,1.74,1.16.85,1.42,1.91,1.01,2.71-.41.8-2.07,1.19-2.73-.4-.66,1.59-2.31,1.2-2.73.4-.41-.8-.15-1.86,1.01-2.71Z"/>
          <path class="cls-2" d="m21.68,10.2c-1.14.84-1.71,1.71-1.72,1.74h0s0,0,0,0h0s0,0,0,0c-.01-.02-.58-.9-1.72-1.74-1.16-.85-1.42-1.91-1.01-2.71.41-.8,2.07-1.19,2.73.4.66-1.59,2.31-1.2,2.73-.4.41.8.15,1.86-1.01,2.71Z"/>
          <path class="cls-2" d="m11.5,21.18c-1.14.84-1.71,1.71-1.72,1.74h0s0,0,0,0h0s0,0,0,0c-.01-.02-.58-.9-1.72-1.74-1.16-.85-1.42-1.91-1.01-2.71.41-.8,2.07-1.19,2.73.4.66-1.59,2.31-1.2,2.73-.4.41.8.15,1.86-1.01,2.71Z"/>
          <path class="cls-2" d="m21.68,21.18c-1.14.84-1.71,1.71-1.72,1.74h0s0,0,0,0h0s0,0,0,0c-.01-.02-.58-.9-1.72-1.74-1.16-.85-1.42-1.91-1.01-2.71.41-.8,2.07-1.19,2.73.4.66-1.59,2.31-1.2,2.73-.4.41.8.15,1.86-1.01,2.71Z"/>
          <path class="cls-2" d="m18.23,30.49c1.14-.84,1.71-1.71,1.72-1.74h0s0,0,0,0h0s0,0,0,0c.01.02.58.9,1.72,1.74,1.16.85,1.42,1.91,1.01,2.71-.41.8-2.07,1.19-2.73-.4-.66,1.59-2.31,1.2-2.73.4-.41-.8-.15-1.86,1.01-2.71Z"/>
          <path class="cls-2" d="m16.59,15.83c-1.14.84-1.71,1.71-1.72,1.74h0s0,0,0,0h0s0,0,0,0c-.01-.02-.58-.9-1.72-1.74-1.16-.85-1.42-1.91-1.01-2.71.41-.8,2.07-1.19,2.73.4.66-1.59,2.31-1.2,2.73-.4.41.8.15,1.86-1.01,2.71Z"/>
          <path class="cls-2" d="m16.59,25.48c-1.14-.84-1.71-1.71-1.72-1.74h0s0,0,0,0h0s0,0,0,0c-.01.02-.58.9-1.72,1.74-1.16.85-1.42,1.91-1.01,2.71.41.8,2.07,1.19,2.73-.4.66,1.59,2.31,1.2,2.73.4.41-.8.15-1.86-1.01-2.71Z"/>
        </g>
      </g>
    </g>
  </g>
</svg>