<?xml version="1.0" encoding="UTF-8"?>
<svg id="Layer_2" data-name="Layer 2" xmlns="http://www.w3.org/2000/svg" viewBox="0 0 44.89 18.33">
  <defs>
    <style>
      .cls-1 {
        fill: #00aeef;
      }
    </style>
  </defs>
  <g id="Layer_1-2" data-name="Layer 1">
    <g>
      <path class="cls-1" d="m14.85.07l-2.69,4.16h-1.06l-5.42,14.1H0L5.42,4.23H1.19L3.9.07h10.95Z"/>
      <path class="cls-1" d="m19.7.07l-.94,8.48h-2.59l.71-5.75-2.34,3.82h1.44l-1.25,1.93h-3.95L16.02.07h3.68Z"/>
      <path class="cls-1" d="m24.84,2.01c-.18,0-.33.05-.44.16-.11.11-.2.26-.28.46l-.04.1c-.06.19-.1.32-.1.37,0,.1.03.16.1.19.07.03.17.05.31.05h1.93c.46,0,.77.1.91.3s.13.52-.04.95l-1.04,2.72c-.17.43-.4.75-.69.95-.29.2-.67.3-1.13.3h-4.72l.26-1.93h3.35c.2,0,.36-.04.47-.13.12-.09.22-.26.32-.5l.04-.08c.08-.21.11-.36.1-.46-.02-.1-.09-.16-.23-.18h-2.11c-.46,0-.77-.1-.91-.3s-.13-.52.04-.95l1.04-2.71c.28-.74.78-1.15,1.49-1.24h5.45l-1.25,1.93h-2.83Z"/>
      <path class="cls-1" d="m11.3,9.78h5.4c.46,0,.76.1.89.3.13.2.11.52-.05.95l-1.2,3.14c-.16.42-.38.73-.66.94s-.65.31-1.12.31l.32,2.84h-2.65l-.42-2.87-1.1,2.87h-2.64l2.52-6.55h-.52l1.22-1.93Zm1.93,1.93l-.68,1.78h.86c.2,0,.36-.04.47-.13s.22-.26.32-.5l.19-.5c.1-.25.12-.42.07-.5s-.17-.13-.37-.13h-.86Z"/>
      <path class="cls-1" d="m16.02,18.26l3.25-8.48h6.05l-1.25,1.93h-2.89l-.53,1.37h2.86l-1.24,1.91h-2.35l-.52,1.34h3.4l-1.25,1.93h-5.53Z"/>
      <path class="cls-1" d="m32.21,18.26l-.46-7.02-2.69,7.02h-5.68L30.38,0h5.68l-2.69,7.03,5.84-7.03h5.68l-7.67,9.09.67,9.17h-5.68Z"/>
    </g>
  </g>
</svg>